<?xml version="1.0" encoding="utf-8"?>
<!-- Generator: Adobe Illustrator 26.0.2, SVG Export Plug-In . SVG Version: 6.00 Build 0)  -->
<svg version="1.1" id="Layer_1" xmlns="http://www.w3.org/2000/svg" xmlns:xlink="http://www.w3.org/1999/xlink" x="0px" y="0px"
	 viewBox="0 0 674.3 129.5" style="enable-background:new 0 0 674.3 129.5;" xml:space="preserve">
<style type="text/css">
	.st0{fill-rule:evenodd;clip-rule:evenodd;fill:#FFFFFF;}
	.st1{fill-rule:evenodd;clip-rule:evenodd;fill:#DA3940;}
</style>
<path class="st0" d="M251,78.3l-4,13.6h-41.1V90l5.3-3.7V42.6l-5.3-3.6v-1.9h43l1,1l-2.7,12.3h-1.9c-1.7-7.6-4.3-8.6-16.8-8.6h-6
	v20.1l19.8-1.2l0.4,0.3l-1.8,6.4l-0.5,0.2l-17.9-1.7v21.5h5.7c10.2,0,15.5-1.6,21-9.7L251,78.3z M674.3,39l-5.3,3.7v48.6l-0.7,0.7
	h-8.5l-31.3-43.2v37.5l6.3,3.7v1.9h-17.3V90l5.3-3.7V42.4l-6.1-3.5V37h16.5l30,41.6v-36l-6.3-3.7V37h17.3v2H674.3z M584.4,86.3
	l6.3,3.7v1.9H568V90l5.3-3.7V42.6l-5.3-3.7V37h23c16.1,0,24.3,5.5,24.3,16c0,12-11.7,20.2-29.1,20.2c-0.8,0-1.5,0-1.9-0.1v13.2
	H584.4z M563.6,39l-5.4,3.6l-18,49.4h-10.4l-19.1-49.1l-5.6-3.8v-1.9h22.5v1.9l-5.5,3.7l15.5,39.8h0.6l13.1-39.9l-5.6-3.7v-1.9h17.8
	L563.6,39L563.6,39z M584.4,68.7C596.6,69,604,63.2,604,53.4c0-8.1-4.2-12.2-12.6-12.2c-2.4,0-5.1,0.6-7.1,1.6v25.9H584.4z
	 M352.6,69.2c0,13.7-9.2,23.4-22,23.4c-3.8,0-6.9-1-9.9-2.3v13.4l6.3,3.7v1.9h-22.3v-1.9l5.4-3.7V56l-5.4-3.2v-1.9l14.4-2.9l1.6,1
	v6.1c3.4-4.4,8.8-7,14.4-7C345.5,48.1,352.6,57.2,352.6,69.2L352.6,69.2z M387.8,57.7h-1.9c-1.4-0.9-2.9-1.3-4.4-1.3
	c-3.2,0-6.3,1.2-9,3.6v26.4l6.5,3.7V92h-22.5v-2l5.4-3.7V56l-5.4-3.2v-1.9L371,48l1.6,1v6.9c2.8-4.5,7.7-7.7,12.6-7.7
	c2.3,0,4.2,0.6,5.8,1.7L387.8,57.7z M420.6,69.7c-5.8,0-12.4-0.2-19.5-0.4c1,9.7,6.3,15.4,15,15.4c5.2,0,8.6-1.3,11.5-3.7l1.8,1.4
	c-2.9,6.9-9.3,10.6-17.7,10.6c-12.8,0-21.5-8.8-21.5-22.2c0-12.8,8.5-22.7,21.6-22.7c6,0,10.6,1.9,13.8,5.7
	c3.2,3.7,4.8,8.6,4.7,14.6l-1.3,1.3C427.3,69.7,424.5,69.7,420.6,69.7L420.6,69.7z M437.9,79.5h1.8c3.4,5.6,8.4,8.8,12.7,8.8
	c3.8,0,6.2-2,6.2-5.1c0-3.6-2.1-5.5-7.3-7.5l-3.9-1.5c-7.5-2.7-11.9-7.2-11.9-13c0-7.2,6.8-12.8,16.9-12.8c5.8,0,11.4,1.4,15.5,3.8
	l-4.2,7.1H462c-2.9-4.4-6.5-6.7-10.6-6.7c-3.8,0-6.2,2.1-6.2,5c0,3.1,2.3,5,9,7.7l4.5,1.7c6.8,2.6,9.8,6.7,9.8,12
	c0,8.4-6.7,13.6-16.9,13.6c-6.3,0-12.7-1.7-17.3-4.5L437.9,79.5z M476.2,79.5h1.8c3.4,5.6,8.4,8.8,12.6,8.8c3.8,0,6.2-2,6.2-5.1
	c0-3.6-2.1-5.5-7.3-7.5l-3.9-1.5c-7.4-2.8-11.9-7.2-11.9-13.1c0-7.2,6.8-12.8,16.9-12.8c5.9,0,11.4,1.4,15.5,3.8l-4.2,7.1h-1.7
	c-2.9-4.4-6.5-6.7-10.6-6.7c-3.8,0-6.2,2.1-6.2,5c0,3.1,2.3,5,9,7.7l4.4,1.7c6.8,2.6,9.8,6.7,9.8,12c0,8.4-6.7,13.6-16.9,13.6
	c-6.3,0-12.6-1.7-17.3-4.5L476.2,79.5z M282.8,69.9l12.8,16.5l4.9,3.6v1.9h-21.7V90l4.5-3.4l-8.7-11.8l-8.4,11.8l5.1,3.4v1.9H254V90
	l5.3-3.6l12.5-15.3L259,54.9l-4.9-3.8v-1.9h21.6v1.9l-4.4,3.4l8.6,11.8l8.4-11.8l-5.1-3.4v-1.9h17.3v1.9l-5.3,3.6L282.8,69.9z
	 M419.2,64.1c-1-7.7-4.5-11.3-9.3-11.3c-5.2,0-8.7,5.1-9,12.5L419.2,64.1z M342.2,73.6c0-9.7-4.7-17.7-12.3-17.7
	c-3.1,0-6.2,1-9.2,3.2V82c2.4,3.7,6.2,5.6,10.6,5.6C338,87.6,342.2,82.4,342.2,73.6L342.2,73.6z"/>
<path class="st1" d="M41.8,129c-18.1,0-29.6-10.1-29.6-24.2c0-4.6,1.4-10.3,6.7-21.8H0l17.4-37.1h120.9c2.8,0,4.6-2.1,4.6-4.5
	s-1.9-4.5-4.6-4.5H40.5l8.6-18.4C54.4,7.2,66-0.2,78.5-0.2h41c23.7,0,41.3,16.3,41.3,37.6c0,25.2-23.2,45.5-50,45.5H31.4
	c-2.4,5,0.3,8.9,6.2,8.9h63.3c10.5,0,18.6,7.4,18.6,16.8c-0.2,11-10.6,20.4-22.5,20.4H41.8L41.8,129z"/>
</svg>
