<svg xmlns="http://www.w3.org/2000/svg" viewBox="0 0 828.7 188.9"><defs><style>.cls-1{fill:#6fbc44;}</style></defs><g id="Layer_2" data-name="Layer 2"><g id="Layer_1-2" data-name="Layer 1"><path class="cls-1" d="M391.7,122.8,363.5,36.5h26.6l9.1,37.3c2.1,9.1,4.8,19.7,6.4,29.8h.5c1.6-10.1,3.7-20.8,5.9-30.4l8.5-36.8h26.6l-28.8,86.3-26.6.1Z"/><path class="cls-1" d="M474.9,103.1l-5.3,19.7H446.2l27.2-86.3h29.3l24.5,86.3H503.8l-5.3-19.7Zm20.2-13.3-4.3-18.1c-1.1-5.3-3.2-13.9-4.3-19.7H486c-1.1,5.9-3.2,14.9-4.3,19.7l-4.8,18.1Z"/><path class="cls-1" d="M539.9,122.8V36.5h22.4l19.2,34.1c3.7,6.9,9.6,17.6,13.3,25h.5c-.5-9.1-2.7-24-2.7-40V36.4h21.3v86.3H591.5l-19.2-33a233.45,233.45,0,0,1-12.8-26.1H559c.5,8.5,1.6,21.8,1.6,39.4v19.2H539.8v.6Z"/><path class="cls-1" d="M659.8,36.5v86.3H635.3V36.5Z"/><path class="cls-1" d="M679,105.8c4.8,2.1,13.3,3.2,20.8,3.2,11.7,0,17.1-4.3,17.1-9.6,0-6.4-5.3-9.6-16-13.9-17.1-6.9-23.4-16.5-23.4-24,0-13.9,13.3-25.6,39.4-25.6,8,0,16,1.6,19.7,3.2l-3.7,14.4a40.15,40.15,0,0,0-16-3.2c-10.1,0-15.5,4.3-15.5,9.1,0,5.3,3.7,8,17.1,13.3,16.5,6.9,22.4,15.5,22.4,24.5,0,16-17.1,26.1-41.6,26.1-10.1,0-19.7-1.6-24-3.7Z"/><path class="cls-1" d="M778.6,36.5V71.1h25.6V36.5h24.5v86.3H804.2V86.6H778.6v36.2H754.1V36.5Z"/><path d="M466.3,188.9l-14.4-46.4h13.9l4.8,19.7c1.1,4.8,2.7,10.7,3.2,16h0c1.1-5.3,2.1-11.2,3.2-16l4.3-19.7h13.9l-14.9,46.4Z"/><path d="M519.6,143.1a100.55,100.55,0,0,1,13.3-1.1c7.5,0,13.3.5,17.6,3.7a12.26,12.26,0,0,1,5.3,10.1,14.2,14.2,0,0,1-5.3,11.2c-4.3,3.2-10.7,4.3-15.5,4.3h-2.7v17.1H520V143.1Zm12.3,21.3H534c6.4,0,9.1-3.2,9.1-7.5s-2.1-6.9-8-6.9a7.17,7.17,0,0,0-3.2.5v13.9Z"/><path d="M582,188.9V142.5h11.7l10.1,18.1c2.1,3.7,4.8,9.6,6.9,13.3h0c-.5-4.8-1.1-12.8-1.1-21.3V142.5h10.7v46.4H609.1l-9.6-17.6a110.8,110.8,0,0,1-6.4-13.9h0c.5,4.8.5,11.7.5,21.3v10.1l-11.6.1Z"/><polygon points="418.9 153.2 228.7 153.2 228.7 150.5 418.9 150.5 418.9 153.2"/><polygon points="825.5 153.2 653.4 153.2 653.4 150.5 825.5 150.5 825.5 153.2"/><path d="M259.6,36.5v86.3h-24V36.5Z"/><path d="M279.8,37.5a172.41,172.41,0,0,1,25.6-1.6c14.4,0,25.6,1.6,34.1,6.9,7.5,4.3,10.7,11.7,10.7,19.2,0,9.6-4.3,16-10.7,20.8-8,5.9-20.2,8-30.4,8h-4.8v32H279.8Zm24,39.5h3.7c12.3,0,17.6-5.9,17.6-13.9,0-7.5-4.3-13.3-16-13.3a21.65,21.65,0,0,0-5.9.5V76.9h.6V77Z"/><path d="M162.8,58.3c-5.3-7.1-12.5-10.6-21.7-10.6H99.4V71.4H137a7.77,7.77,0,0,1,6.4,3.2,11.51,11.51,0,0,1,2.1,7.1,10.71,10.71,0,0,1-2.1,6.7,7.47,7.47,0,0,1-6.4,3H99.4v24.4h41.5c9.2,0,16.4-3.5,21.9-10.6,4.8-6.4,7.2-14.1,7.2-23.5S167.5,64.6,162.8,58.3Z"/><rect class="cls-1" x="61.1" y="47.7" width="26.8" height="23.7"/><rect class="cls-1" x="37.6" y="25.8" width="16.4" height="14.5"/><rect class="cls-1" x="19.2" y="24.9" width="12" height="10.6"/><rect class="cls-1" x="37.9" y="47.7" width="15.9" height="14.1"/><rect class="cls-1" x="37.1" y="9.7" width="12" height="10.6"/><rect class="cls-1" x="19.8" y="10.4" width="8.8" height="7.8"/><rect class="cls-1" x="6.7" width="8.8" height="7.8"/><rect class="cls-1" x="63.5" y="25.9" width="15.9" height="14.1"/><path d="M87.9,92c-8.1,1.1-14.3,4.1-19.1,9.2-5.3,5.6-7.8,12.9-7.8,21.7v37.3H87.8V92Z"/><path class="cls-1" d="M103.6,135.4c22.8,2.8,38.5,9.2,38.5,16.6,0,10.1-29,18.2-64.8,18.2S12.5,162.1,12.5,152c0-7.4,15.9-13.8,38.5-16.6-29.8,3.2-51,11.8-51,21.9,0,12.9,34.6,23.3,77.3,23.3s77.3-10.4,77.3-23.3C154.8,147.2,133.4,138.6,103.6,135.4Z"/></g></g></svg>