<?xml version="1.0" encoding="UTF-8"?>
<svg id="Layer_1" xmlns="http://www.w3.org/2000/svg" version="1.1" viewBox="0 0 212.9 27.9">
  <!-- Generator: Adobe Illustrator 29.1.0, SVG Export Plug-In . SVG Version: 2.1.0 Build 142)  -->
  <defs>
    <style>
      .st0 {
        fill: #ffe01a;
      }

      .st0, .st1 {
        fill-rule: evenodd;
      }

      .st2, .st1 {
        fill: #242424;
      }
    </style>
  </defs>
  <g id="logo_norton_d">
    <g id="Norton_WBG_Horizontal">
      <path id="Combined-Shape" class="st1" d="M64.8,5.6c2,0,3.7.4,5.3,1.2,1.6.8,2.8,1.9,3.7,3.5.9,1.5,1.3,3.3,1.3,5.4v.6c0,2.1-.4,3.9-1.3,5.4s-2.1,2.7-3.7,3.5-3.3,1.2-5.3,1.2-3.7-.4-5.3-1.2c-1.6-.8-2.8-1.9-3.7-3.5-.9-1.5-1.3-3.3-1.3-5.4v-.6c0-2.1.4-3.9,1.3-5.4s2.1-2.7,3.7-3.5c1.6-.8,3.3-1.2,5.3-1.2ZM113.7,5.6c2,0,3.7.4,5.3,1.2s2.8,1.9,3.7,3.5c.9,1.5,1.3,3.3,1.3,5.4v.6c0,2.1-.4,3.9-1.3,5.4-.9,1.5-2.1,2.7-3.7,3.5-1.6.8-3.3,1.2-5.3,1.2s-3.7-.4-5.3-1.2c-1.6-.8-2.8-1.9-3.7-3.5-.9-1.5-1.3-3.3-1.3-5.4v-.6c0-2.1.4-3.9,1.3-5.4s2.1-2.7,3.7-3.5c1.6-.8,3.3-1.2,5.3-1.2ZM44.2,5.8c1.5,0,2.9.4,4,1.1s2,1.7,2.7,2.9c.6,1.2,1,2.7,1,4.3v11.7h-5v-11.4c0-1.5-.4-2.6-1.1-3.3-.7-.7-1.8-1.1-3.1-1.1s-2.7.5-3.6,1.5c-.8,1-1.3,2.4-1.3,4.3v10h-5V6.1h4.9v2.6h.7c.3-.7.9-1.3,1.8-2,.9-.6,2.3-.9,4-.9ZM97.1,0v6.1h5.4v4.1h-5.4v10.2c0,.8.4,1.2,1.1,1.2h3.8v4.1h-5.5c-1.3,0-2.3-.4-3.1-1.2-.8-.8-1.2-1.9-1.2-3.2v-11.1h-5.1c-1.4,0-2.3.6-3.1,1.3-.8.7-1.2,1.7-1.2,3.1v11.2h-5V6.1h4.9v2.2h.7c.3-.8.8-1.3,1.5-1.7s1.4-.5,2.3-.5h5V0h4.9ZM138,5.8c1.5,0,2.9.4,4,1.1s2,1.7,2.7,2.9c.6,1.2,1,2.7,1,4.3v11.7h-5v-11.4c0-1.5-.4-2.6-1.1-3.3-.7-.7-1.8-1.1-3.1-1.1s-2.7.5-3.6,1.5c-.8,1-1.3,2.4-1.3,4.3v10h-5V6.1h4.9v2.6h.7c.3-.7.9-1.3,1.8-2,.9-.6,2.2-.9,4-.9ZM64.8,10c-1.5,0-2.8.5-3.8,1.5s-1.5,2.4-1.5,4.3v.4c0,1.9.5,3.3,1.5,4.3s2.3,1.5,3.8,1.5,2.8-.5,3.8-1.5,1.5-2.4,1.5-4.3v-.4c0-1.9-.5-3.3-1.5-4.3s-2.3-1.5-3.8-1.5ZM113.7,10c-1.5,0-2.8.5-3.8,1.5s-1.5,2.4-1.5,4.3v.4c0,1.9.5,3.3,1.5,4.3s2.3,1.5,3.8,1.5,2.8-.5,3.8-1.5,1.5-2.4,1.5-4.3v-.4c0-1.9-.5-3.3-1.5-4.3s-2.3-1.5-3.8-1.5Z"/>
      <g>
        <path id="Fill-13" class="st0" d="M25.7,15c0,7.1-5.8,12.9-12.9,12.9S0,22.1,0,15,5.7,2.1,12.8,2.1s3.8.4,5.5,1.2l-2.2,2.8c-1-.4-2.2-.6-3.4-.6-5,0-9.1,3.9-9.5,8.8v.7c0,5.2,4.3,9.5,9.5,9.5s9.5-4.3,9.5-9.5,0-1.4-.2-2l2.5-3.2c.9,1.6,1.2,3.4,1.2,5.2"/>
        <path id="Fill-16" class="st1" d="M23,7.2l-2.1,2.8-7.7,9.7-6.2-5.6,2.2-2.5,3.5,3.1,5.8-7.4,2.1-2.7c.9.8,1.6,1.6,2.4,2.5"/>
      </g>
    </g>
  </g>
  <g>
    <path class="st2" d="M158.4,25.9L150.3.8h5l3.4,11.4c1,3.2,1.8,6.1,2.5,9.2h0c.7-3,1.6-6,2.6-9.1l3.7-11.5h4.9l-8.7,25.1h-5.3Z"/>
    <path class="st2" d="M174.1,1.1c1.6-.3,3.9-.5,7-.5s5.8.7,7.4,2c1.5,1.2,2.5,3.2,2.5,5.6s-.7,4.4-2.2,5.7c-1.8,1.8-4.7,2.7-7.9,2.7s-1.6,0-2.2-.1v9.5h-4.5V1.1ZM178.6,12.8c.6.1,1.3.2,2.2.2,3.4,0,5.5-1.7,5.5-4.6s-1.9-4.3-5.1-4.3-2.2.1-2.6.2v8.5Z"/>
    <path class="st2" d="M192.9,25.9V.8h5.2l6.5,10.8c1.7,2.8,3.1,5.7,4.3,8.4h0c-.3-3.4-.4-6.6-.4-10.4V.8h4.3v25.1h-4.7l-6.6-11c-1.6-2.8-3.3-5.9-4.5-8.7h-.1c.2,3.3.2,6.6.2,10.7v9h-4.2Z"/>
  </g>
</svg>