<?xml version="1.0" encoding="UTF-8"?>
<svg id="Layer_1" xmlns="http://www.w3.org/2000/svg" version="1.1" viewBox="0 0 154.4 27.9">
  <!-- Generator: Adobe Illustrator 29.1.0, SVG Export Plug-In . SVG Version: 2.1.0 Build 142)  -->
  <defs>
    <style>
      .st0 {
        fill: #e63748;
      }

      .st0, .st1, .st2 {
        fill-rule: evenodd;
      }

      .st1 {
        fill: #c42b34;
      }

      .st2 {
        fill: #242424;
      }
    </style>
  </defs>
  <g id="Brand_x2F_Logo_x2F_Total-VPN">
    <g id="Brand_x2F_Wordmark_x2F_Total-VPN">
      <path id="Total-VPN" class="st2" d="M28.1,8.8h5.3v14.1h4.2v-14.1h5.3v-3.4h-14.8v3.4ZM60.1,14.1c0-5.8-3.7-9-8.4-9s-8.3,3.2-8.3,9,3.6,9,8.3,9,8.4-3.2,8.4-9ZM55.7,14.1c0,3.4-1.5,5.3-4,5.3s-4-1.9-4-5.3,1.5-5.3,4-5.3,4,1.9,4,5.3ZM75.4,5.4v3.4h-5.3v14.1h-4.2v-14.1h-5.3v-3.4h14.8ZM86,5.4l5.9,17.5h-4.5l-1.2-3.7h-6l-1.2,3.7h-4.5l5.9-17.5h5.6ZM83.3,9.8h-.1l-1.9,6.2h4l-1.9-6.2ZM93.8,22.9h11.5v-3.4h-7.3V5.4h-4.2v17.5ZM112.1,5.7h-2.1l6.1,16.7h2.1l6.1-16.7h-2.1l-4.9,14h-.2l-4.9-14ZM126.8,22.3h2v-6.1h3.6c3.9,0,5.6-2.4,5.6-5.3s-1.7-5.3-5.7-5.3h-5.6v16.7ZM128.8,14.5v-7h3.5c2.7,0,3.7,1.5,3.7,3.5s-1,3.5-3.7,3.5h-3.6ZM154.4,5.7h-2v13.1h-.2l-9.1-13.1h-2v16.7h2v-13.1h.2l9.1,13.1h2V5.7Z"/>
    </g>
    <g id="Brand_x2F_Icons_x2F_Color_x2F_Total-VPN">
      <path id="Combined-Shape" class="st0" d="M10.3,0C16,0,20.6,4.5,20.6,9.9s-1.6,6.7-4.4,10.7c-1,1.4-2,2.8-3.1,4-.2.3-.4.5-.7.8l-.4.5-.4.4-1,1s0,0,0,0c-.2.2-.6.2-.8,0l-1.2-1.3c-1.6-1.8-3.4-4-4.9-6.4C1.4,16,0,12.7,0,9.9,0,4.5,4.6,0,10.3,0ZM10.3,6.3c-2.2,0-4,1.8-4,4s1.8,4,4,4,4-1.8,4-4-1.8-4-4-4Z"/>
      <path id="Combined-Shape1" data-name="Combined-Shape" class="st1" d="M10.3,0C16,0,20.6,4.5,20.6,9.9s-1.6,6.7-4.4,10.7c-1,1.4-2,2.8-3.1,4-.2.3-.4.5-.7.8l-.4.5-.4.4-1.1,1.2s0,0-.1,0c0,0-.2,0-.2-.2v-1c0-.2,0-.3,0-.5v-.9c0-.2,0-.3,0-.5v-1.4c0-.2,0-.3,0-.4v-.9c0-.1,0-.3,0-.4v-1.3c0-.1,0-.3,0-.4v-1.2c0-.1,0-.3,0-.4v-1.2c0-.1,0-.3,0-.4v-1.1c0-.1,0-.2,0-.4v-.6s0,0,0,0c2.2,0,4-1.8,4-4s-1.8-4-4-4h0c0-.6,0-1.2,0-1.7v-1.7c0,0,0-.1,0-.2V0Z"/>
    </g>
  </g>
</svg>