<svg xmlns="http://www.w3.org/2000/svg" viewBox="0 0 853.27 174.3"><defs><style>.cls-1,.cls-2,.cls-3{fill-rule:evenodd;}.cls-2{fill:#fac70b;}.cls-3{fill:#666;}</style></defs><g id="Layer_2" data-name="Layer 2"><g id="Layer_1-2" data-name="Layer 1"><g id="logo"><path id="Fill-1" class="cls-1" d="M94.8,31.2c1.2.2,2.2,1.2,1.3,1.3a5.31,5.31,0,0,1-1.8-.1,7.92,7.92,0,0,0-3.1,0s2.2-1.4,3.6-1.2m8.2,1.3c-.9-.1.1-1.1,1.3-1.3,1.4-.2,3.6,1.2,3.6,1.2a6.37,6.37,0,0,0-3.1,0,5.9,5.9,0,0,1-1.4.2c-.1-.1-.2-.1-.4-.1m-35.3-16c-4.3-4-3.5-8.4-1.9-11.8,0,0,8.4,11.5,18.8,15.8,0,0-.9.1-2.3.1-3.6,0-10.8-.5-14.6-4.1m46.8,4c10.4-4.3,18.8-15.8,18.8-15.8,1.6,3.4,2.4,7.8-1.9,11.8-3.8,3.6-11,4.1-14.6,4.1-1.4,0-2.3-.1-2.3-.1M100.2,77.3c17.4,0,36.5-3.9,48.4-12-11.8,11.8-35.4,20.5-63,21.8-30.3,1.4-56.7-6.4-68.4-18.9-3.4,4.5-5.2,9.2-4.9,14.1,1,19.9,34.4,34.5,74.7,32.5a133.07,133.07,0,0,0,35.2-6.2,105.43,105.43,0,0,1-28.1,12.7c-24.5,7.2-48,5.4-60.4-3.2-1.8,4.5-2.8,9.2-.8,13.3C39.5,145,70.4,152,103,142.5c2.3-.7,4.5-1.4,6.7-2.2-11.4,22.4-46.8,34-46.8,34,56.2-8.9,79.7-49,85.3-60.1,2.9-5.7,4.4-11.8,2.8-17.2a20.65,20.65,0,0,0-1.5-3.4c5.8-5.5,8.9-11.8,8.6-18.2-.2-4.7-2.3-9-5.8-13,4.9-4.3,7.8-9.7,7.8-16,0-18.7-17.2-20.2-17.2-20.2S169,36.7,134,43.8a151.83,151.83,0,0,1-98.9-14C9.2,16.1,26.5,4.6,61.8,3.4c-1.2,3-1.5,7.5-1.8,9.6,0,0-5.2.4-4.5,4.8s4.7,9.8,15.5,13,9.8,3.5,14.5,5.4S97,37.5,99.4,36c2.4,1.5,9.3,2.1,13.9.2s3.7-2.3,14.5-5.4,14.9-8.6,15.5-13-4.5-4.8-4.5-4.8c-.7-4-1.1-16.8-8-11.3-1.5,1.2-6.7-.3-8.8-.4a28.23,28.23,0,0,0-16.4,4.2,11.17,11.17,0,0,1-6.2,2,11.17,11.17,0,0,1-6.2-2C90.6,3.6,84.3.9,76.8,1.3c-2.2.1-7.3,1.6-8.8.4C65.3-.5,63.6.2,62.5,2A151.49,151.49,0,0,0,39.4,0C20.6,0,0,4.7,0,25.4.1,59,66,77.3,100.2,77.3Z"/><path id="Fill-2" class="cls-2" d="M114.5,20.5s11.6.9,16.9-4c4.3-4,3.5-8.4,1.9-11.8,0,0-8.4,11.5-18.8,15.8"/><path id="Fill-3" class="cls-2" d="M67.7,16.5c5.3,4.9,16.9,4,16.9,4C74.2,16.2,65.8,4.7,65.8,4.7c-1.6,3.4-2.4,7.8,1.9,11.8"/></g><g id="logotype"><path class="cls-3" d="M203.27,30.4h24.9L250.77,96l23.5-65.6h24.9l-37.9,93.9h-22.4Zm100.9,0h25L352.67,98l23-67.6h24.5l-38.7,96.7c-6.9,17-17.8,29.2-32.9,36.4l-11.4-16.2a43.4,43.4,0,0,0,22.7-22.5Zm102.5,3.8a200,200,0,0,1,41-3.8c32.8,0,49.3,14.9,49.3,44.6q0,49.35-45.1,49.3a53.61,53.61,0,0,1-21.6-4.5v38.5h-23.5l-.1-124.1Zm23.5,65.6v-49a107.5,107.5,0,0,1,18.4-1.3c16.7,0,25,8.4,25,25.3,0,19.9-7.3,29.8-21.9,29.8A48.11,48.11,0,0,1,430.17,99.8Zm81.4,24.5V30.4h18.2l2.9,12c8.2-8,16.8-12,25.9-12V49.5c-8.8,0-16.6,4-23.5,11.9v62.9ZM570,30.4h10.7l34.1,85.8,34.3-85.8h10.6L620,124.3h-10.8Zm101.1,3.8a186.37,186.37,0,0,1,38.3-3.8q44.85,0,44.9,44.6,0,49.35-45.1,49.3-11.25,0-28.8-4.5v38.5h-9.3V34.2Zm9.3,76.3V40.9a232,232,0,0,1,28.8-2.1q36,0,36,36c0,27-12.1,40.5-36.1,40.5C701.17,115.4,691.57,113.7,680.37,110.5Zm94.3,13.8V30.4h6.6l1.2,12c15.4-8,28.9-12,40.3-12q30.45,0,30.5,29.6v64.3H844V59.7c0-13.9-7.8-20.9-23.3-20.9-11.2,0-23.4,4-36.6,11.9v73.6Z"/></g></g></g></svg>