<svg xmlns="http://www.w3.org/2000/svg" width="21.464" height="19.93" viewBox="0 0 21.464 19.93"><g transform="translate(-2.249 -3.375)"><path d="M26.311,7.523v6.755l-10.2,9.759a2.184,2.184,0,0,0,1.38.589,2.387,2.387,0,0,0,1.5-.589l9.132-8.609V9.3Z" transform="translate(-4.418 -1.322)" fill="#343a40"/><path d="M19.114,3.375H11.448L2.839,12.363a1.961,1.961,0,0,0-.589,1.361,2.1,2.1,0,0,0,.589,1.528L8.77,21.173a2.2,2.2,0,0,0,1.38.6,2.391,2.391,0,0,0,1.5-.6l9-8.6V4.908ZM17.643,8.3A1.535,1.535,0,1,1,18.668,7.27,1.492,1.492,0,0,1,17.643,8.3Z" fill="#343a40"/></g></svg>