<?xml version="1.0" encoding="UTF-8"?>
<svg id="Layer_1" data-name="Layer 1" xmlns="http://www.w3.org/2000/svg" version="1.1" viewBox="0 0 10.6 14">
  <defs>
    <style>
      .cls-1 {
        fill: #000;
        stroke-width: 0px;
      }
    </style>
  </defs>
  <path class="cls-1" d="M6.7,13.7c.4,0,.8-.4.8-.8v-1.9h.6c.3,0,.6-.2.6-.6v-5.5H2v5.5c0,.3.2.6.6.6h.6v1.9c0,.4.4.8.8.8s.8-.4.8-.8v-1.9h1.1v1.9c0,.4.4.8.8.8ZM.7,10.3c.4,0,.7-.4.7-.8v-3.9c0-.4-.3-.8-.7-.8s-.7.4-.7.8v3.9c0,.4.3.8.7.8ZM9.9,10.3c.4,0,.7-.4.7-.8v-3.9c0-.4-.3-.8-.7-.8s-.7.4-.7.8v3.9c0,.4.3.8.7.8ZM7.9.5c-.1-.1-.3-.1-.4,0l-.7.7h0c-.4-.2-.9-.3-1.5-.3,0,0,0,0,0,0h0s0,0,0,0c-.5,0-1,.1-1.5.3h0s-.7-.8-.7-.8c-.1-.1-.3-.1-.4,0-.1.1-.1.3,0,.4l.7.7c-.2.2-.4.3-.6.6-.4.5-.7,1.2-.8,1.9,0,0,0,0,0,0,0,0,0,0,0,.1h6.6c0,0,0,0,0-.1,0,0,0,0,0,0,0-.7-.3-1.4-.8-1.9-.2-.2-.4-.4-.6-.6l.7-.7c.1-.1.1-.3,0-.4ZM3.9,3.3c-.2,0-.4-.2-.4-.4s.2-.4.4-.4.4.2.4.4-.2.4-.4.4ZM6.7,3.3c-.2,0-.4-.2-.4-.4s.2-.4.4-.4.4.2.4.4-.2.4-.4.4Z"/>
</svg>