<?xml version="1.0" encoding="UTF-8"?>
<svg id="Layer_1" data-name="Layer 1" xmlns="http://www.w3.org/2000/svg" version="1.1" viewBox="0 0 11.4 14">
  <defs>
    <style>
      .cls-1 {
        fill: #010101;
        stroke-width: 0px;
      }
    </style>
  </defs>
  <path class="cls-1" d="M9.5,7.4c0-1.1.6-2.1,1.5-2.6-.6-.8-1.5-1.3-2.6-1.3-.9,0-1.8.3-2.7.6-.8-.2-1.5-.4-2.3-.6C1.5,3.6,0,5.3,0,7.3c0,0,0,.1,0,.2,0,.8.2,1.7.4,2.4.4,1.1,1.8,3.8,3.2,3.8.8,0,1.3-.5,2.3-.5s1.5.5,2.3.5c1.5,0,2.7-2.5,3.1-3.6-1.1-.5-1.9-1.5-1.9-2.8h0ZM7.8,2.4c.5-.6.8-1.4.7-2.2-.8,0-1.5.5-2,1.1-.5.6-.8,1.4-.8,2.2.8,0,1.6-.4,2.1-1h0Z"/>
</svg>