<?xml version="1.0" encoding="utf-8"?>
<!-- Generator: Adobe Illustrator 26.5.0, SVG Export Plug-In . SVG Version: 6.00 Build 0)  -->
<svg version="1.1" id="Layer_1" xmlns="http://www.w3.org/2000/svg" xmlns:xlink="http://www.w3.org/1999/xlink" x="0px" y="0px"
	 viewBox="0 0 40 64" style="enable-background:new 0 0 40 64;" xml:space="preserve">
<style type="text/css">
	.st0{fill:#355259;}
	.st1{fill:url(#SVGID_1_);}
	.st2{fill:url(#SVGID_00000112632541090342515610000009751224637602696876_);}
	.st3{fill:url(#SVGID_00000145030453805120564430000005268116974856202390_);}
	.st4{fill:url(#SVGID_00000115507812115571571650000005787771755339276983_);}
	.st5{fill:url(#SVGID_00000164507946481101607450000003065623982669055893_);}
	.st6{fill:url(#SVGID_00000169523342260421665300000002520664693644554418_);}
	.st7{opacity:0.3;fill:url(#SVGID_00000083804321523896133370000015968642173618994609_);}
	.st8{fill:url(#SVGID_00000150102712280439843800000017648038493896957836_);}
	.st9{fill:#296878;}
	.st10{fill:url(#SVGID_00000080171828518461378500000013365610947132792458_);}
	.st11{fill:#1C4752;}
	.st12{fill:url(#SVGID_00000167374843567577946630000007232374263775527316_);}
	.st13{fill:url(#SVGID_00000106842897442502912750000013810662171495431859_);}
	.st14{fill:url(#SVGID_00000174583298275577152080000003694654254693213887_);}
	.st15{fill:url(#SVGID_00000034081605835655990240000003810495223102586505_);}
	.st16{fill:url(#SVGID_00000116208794384220004020000016953997991560050069_);}
	.st17{fill:url(#SVGID_00000081616312603459506020000016679153210060879488_);}
</style>
<g>
	<path class="st0" d="M18.2,60.6c0.3,0.6,0.2,0.8,0.1,0.9c-0.2,0.3-0.7,0-1.9,0.2c-0.1,0-0.4,0.1-0.8,0c-0.3-0.1-0.7-0.2-0.6-0.3
		c0,0,0.1,0,0.1,0c0.3-0.1,2.5-0.7,2.5-0.7L18.2,60.6z"/>
	
		<linearGradient id="SVGID_1_" gradientUnits="userSpaceOnUse" x1="2868.053" y1="16.9029" x2="2868.053" y2="2.7162" gradientTransform="matrix(-0.9999 1.380000e-02 1.380000e-02 0.9999 2885.4714 6.7094)">
		<stop  offset="0" style="stop-color:#FFC444"/>
		<stop  offset="0.9964" style="stop-color:#F36F56"/>
	</linearGradient>
	<path class="st1" d="M18.4,59.4l-0.2,1.2c0,0-0.5,0.4-0.7-0.1c-0.1-0.3-0.1-1.2-0.1-1.2L18.4,59.4z"/>
	
		<linearGradient id="SVGID_00000048499857273748434790000014148612418227756449_" gradientUnits="userSpaceOnUse" x1="2873.2766" y1="16.903" x2="2873.2766" y2="2.7162" gradientTransform="matrix(-0.9999 1.380000e-02 1.380000e-02 0.9999 2885.4714 6.7094)">
		<stop  offset="0" style="stop-color:#FFC444"/>
		<stop  offset="0.9964" style="stop-color:#F36F56"/>
	</linearGradient>
	<polygon style="fill:url(#SVGID_00000048499857273748434790000014148612418227756449_);" points="12,60 12.6,61.5 13.3,61.3 
		13.1,60 	"/>
	<path class="st0" d="M12.8,62.2c0.4-0.4,0.7-0.4,0.8-0.7c0.1-0.2-0.1-0.5-0.3-0.6c-0.3-0.2-0.7,0.1-0.8,0.1c-0.6,0.4-0.4,1-1,1.2
		c-0.1,0.1-0.3,0.1-0.5,0.3c-0.1,0.1-0.3,0.3-0.2,0.4c0.1,0.1,0.4,0.1,0.7,0.1c0.4,0,0.6,0,0.8-0.1C12.6,62.8,12.5,62.6,12.8,62.2z"
		/>
	
		<linearGradient id="SVGID_00000172412190380820184800000017934483128865076634_" gradientUnits="userSpaceOnUse" x1="14.7926" y1="44.6539" x2="22.4696" y2="44.6539">
		<stop  offset="0" style="stop-color:#3FA0B8"/>
		<stop  offset="0.3224" style="stop-color:#3B95AC"/>
		<stop  offset="0.7897" style="stop-color:#348499"/>
	</linearGradient>
	<path style="fill:url(#SVGID_00000172412190380820184800000017934483128865076634_);" d="M22.5,29.5c-0.1,2.9-0.6,5.4-1,7.4
		c-0.5,2.2-0.8,2.5-1,4.1c-0.4,3.3,0.7,3.8,0.8,7.5c0.1,4.1-1,7.3-1.5,8.6c-0.4,1.1-0.8,2-1.1,2.6c-0.4,0.3-1,0.2-1.6,0
		c-0.1-3.7-0.3-7.2-0.5-11c-0.6-5.6-1.2-11.2-1.8-16.9C17.4,31.1,19.9,30.3,22.5,29.5z"/>
	
		<linearGradient id="SVGID_00000085971526099905986050000005586105299816039354_" gradientUnits="userSpaceOnUse" x1="2866.8274" y1="-13.7093" x2="2865.5244" y2="15.6051" gradientTransform="matrix(-0.9999 1.380000e-02 1.380000e-02 0.9999 2885.4714 6.7094)">
		<stop  offset="0.3902" style="stop-color:#3FA0B8"/>
		<stop  offset="0.6723" style="stop-color:#3B95AC"/>
		<stop  offset="0.9964" style="stop-color:#348499"/>
	</linearGradient>
	<path style="fill:url(#SVGID_00000085971526099905986050000005586105299816039354_);" d="M17.1,59.7c-0.1-3.7-0.3-7.2-0.5-11
		c-0.6-5.6-1.2-11.2-1.8-16.9c2.6-0.8,5.1-1.6,7.7-2.3c0,0.2,0,0.4,0,0.6c-3.6,3-4.4,5.5-4.4,7.1c0,2,1.1,3.1,0.8,6
		c-0.2,2.1-0.8,2.5-0.9,4.4c-0.1,2.4,1,3.8,1.4,5.3c0.5,1.4,0.6,3.3-0.4,6c-0.1,0.3-0.3,0.5-0.4,0.7C18.3,59.9,17.7,59.8,17.1,59.7z
		"/>
	
		<linearGradient id="SVGID_00000158732505057142323080000017908404034194929075_" gradientUnits="userSpaceOnUse" x1="2886.688" y1="-1.2384" x2="2862.803" y2="-2.3241" gradientTransform="matrix(-0.9999 1.380000e-02 1.380000e-02 0.9999 2885.4714 6.7094)">
		<stop  offset="0.3902" style="stop-color:#3FA0B8"/>
		<stop  offset="0.6723" style="stop-color:#3B95AC"/>
		<stop  offset="0.9964" style="stop-color:#348499"/>
	</linearGradient>
	<path style="fill:url(#SVGID_00000158732505057142323080000017908404034194929075_);" d="M17.9,32.2c-1.9,3.1-3,5.6-3.6,7.1
		c-0.4,0.9-0.7,1.9-0.8,3.2c-0.1,1.6,0.2,2.9,0.4,3.7c0.4,1.1,0.7,2.3,0.9,3.7c0.6,4.5-0.5,8.3-1.4,10.4c-0.5,0.2-0.9,0.3-1.4,0.5
		c-1-2.9-2.1-7-2.9-12c-0.4-2.7-0.8-4.9-0.7-7.6c0.1-2.9,0.6-7.4,3-12.8C13.6,29.6,15.8,30.9,17.9,32.2z"/>
	
		<linearGradient id="SVGID_00000112628270373621601920000005499598964253202331_" gradientUnits="userSpaceOnUse" x1="2851.3367" y1="5.0195" x2="2868.2737" y2="-31.171" gradientTransform="matrix(-0.9999 1.380000e-02 1.380000e-02 0.9999 2885.4714 6.7094)">
		<stop  offset="0" style="stop-color:#FFC444"/>
		<stop  offset="0.9964" style="stop-color:#F36F56"/>
	</linearGradient>
	<path style="fill:url(#SVGID_00000112628270373621601920000005499598964253202331_);" d="M17.4,7.3c-2.9,0.4-5.1,0.9-6.1,2.4
		c-1.1,1.6,0.5,2.8,0.9,6.3c0.6,5.4-2.5,7.3-1.8,12.7c0.3,1.8,0.8,3.2,1.3,4.1c0.9,0.8,2.4,1.8,4.4,2.6c2.9,1.1,4.3,0.5,8.3,0.8
		c6.4,0.5,7.3,2.4,10.2,1.3c3-1.1,5.1-4.2,4.5-5.5c-0.4-0.8-1.5-0.3-3.2-1.3c-2.1-1.3-1.7-3-3.5-4.5c-2.5-2.2-5-0.1-7.1-2
		c-2.1-1.9-2.3-6.5-1.3-9.2c0.6-1.8,0.7-3.7,1.2-5.5c0-0.1,0.1-0.4,0-0.7c-0.3-1.1-2.2-1.3-3.7-1.5C19.3,7,17.6,7.3,17.4,7.3z"/>
	
		<linearGradient id="SVGID_00000002353748445946241120000012867376851961915277_" gradientUnits="userSpaceOnUse" x1="-3265.9932" y1="-574.8357" x2="-3252.7629" y2="-547.6299" gradientTransform="matrix(0.9823 -0.1875 0.1875 0.9823 3324.4519 -36.8206)">
		<stop  offset="0" style="stop-color:#FF9085"/>
		<stop  offset="1" style="stop-color:#FB6FBB"/>
	</linearGradient>
	<path style="opacity:0.3;fill:url(#SVGID_00000002353748445946241120000012867376851961915277_);" d="M34.3,35.4
		c-0.9-0.6-0.4-2.3-1.7-3.2c-1.2-0.9-2.2,0.2-4-0.4c-2.3-0.8-2.1-3-4.3-3.7c-1.6-0.5-2.1,0.5-4.4,0.5c-2.3,0-5.3-1-7.1-3.5
		c-0.8-1-1.2-2.2-1.4-3.2c-0.7,2-1.4,3.9-0.9,6.8c0.3,1.8,0.8,3.2,1.3,4.1c0.9,0.8,2.4,1.8,4.4,2.6c2.9,1.1,4.3,0.5,8.3,0.8
		c6.4,0.5,7.3,2.4,10.2,1.3c1.9-0.7,3.5-2.2,4.2-3.6C36.2,35.7,34.9,35.9,34.3,35.4z"/>
	
		<linearGradient id="SVGID_00000173873152170040414600000007975240014904385179_" gradientUnits="userSpaceOnUse" x1="2870.0015" y1="-41.9303" x2="2866.946" y2="-36.9878" gradientTransform="matrix(-0.9999 1.380000e-02 1.380000e-02 0.9999 2885.4714 6.7094)">
		<stop  offset="0" style="stop-color:#FFC444"/>
		<stop  offset="0.9964" style="stop-color:#F36F56"/>
	</linearGradient>
	<path style="fill:url(#SVGID_00000173873152170040414600000007975240014904385179_);" d="M15.8,2.3c0,0-0.8,1.5-0.9,2.5
		c-0.1,1,1.1,1,1.1,1L16,6.5c0,0.6-0.4,1-1,1.2l-0.5,0.2c0,0,3,0.7,4.7-0.4l-0.5-0.1c-0.7-0.1-1.2-0.6-1.3-1.3l0-0.3
		C17.5,5.8,18.1,2.6,15.8,2.3z"/>
	<g>
		<path class="st9" d="M11,18.8l-3.7-8.4c0-0.1-0.2-0.2-0.3-0.2l-6.6,0.8c-0.2,0-0.3,0.2-0.2,0.4l4.4,9c0.1,0.1,0.2,0.2,0.3,0.1
			l5.8-1.4L11,18.8z"/>
		
			<linearGradient id="SVGID_00000174581054757986844990000010843014725036788634_" gradientUnits="userSpaceOnUse" x1="2915.6123" y1="12.4513" x2="2910.2922" y2="22.4398" gradientTransform="matrix(-1 0 0 1 2920.126 0)">
			<stop  offset="0" style="stop-color:#FFC444"/>
			<stop  offset="0.9964" style="stop-color:#F36F56"/>
		</linearGradient>
		<path style="fill:url(#SVGID_00000174581054757986844990000010843014725036788634_);" d="M10,17.8L7,11c0-0.1-0.1-0.1-0.2-0.1
			l-5.3,0.7c-0.1,0-0.2,0.2-0.2,0.3l3.6,7.3c0,0.1,0.1,0.1,0.2,0.1l4.7-1.2L10,17.8z"/>
		<path class="st11" d="M5.9,11l-0.2-0.5c0-0.1-0.1-0.1-0.2-0.1l-2.7,0.3c-0.1,0-0.2,0.1-0.1,0.3l0.3,0.6c0,0.1,0.1,0.1,0.2,0.1
			l2.7-0.4C5.8,11.2,5.9,11.1,5.9,11z"/>
		
			<linearGradient id="SVGID_00000169555455132404995200000015536891913058013591_" gradientUnits="userSpaceOnUse" x1="2916.1841" y1="6.6733" x2="2914.8359" y2="19.3656" gradientTransform="matrix(-1 0 0 1 2920.126 0)">
			<stop  offset="0" style="stop-color:#FFC444"/>
			<stop  offset="0.9964" style="stop-color:#F36F56"/>
		</linearGradient>
		<path style="fill:url(#SVGID_00000169555455132404995200000015536891913058013591_);" d="M2.1,12.8C2.1,12.8,2.2,12.8,2.1,12.8
			L7,12.2c0.1,0,0.1-0.1,0.1-0.1C7,12,7,11.9,6.9,12l-4.8,0.6c-0.1,0-0.1,0.1-0.1,0.1C2,12.7,2.1,12.8,2.1,12.8z"/>
		
			<linearGradient id="SVGID_00000097463181210449341700000002329161606536663446_" gradientUnits="userSpaceOnUse" x1="2916.0007" y1="6.6539" x2="2914.6526" y2="19.3461" gradientTransform="matrix(-1 0 0 1 2920.126 0)">
			<stop  offset="0" style="stop-color:#FFC444"/>
			<stop  offset="0.9964" style="stop-color:#F36F56"/>
		</linearGradient>
		<path style="fill:url(#SVGID_00000097463181210449341700000002329161606536663446_);" d="M2.4,13.3C2.4,13.3,2.4,13.3,2.4,13.3
			l4.8-0.7c0.1,0,0.1-0.1,0.1-0.1c0-0.1-0.1-0.1-0.1-0.1l-4.8,0.7c-0.1,0-0.1,0.1-0.1,0.1C2.3,13.2,2.3,13.3,2.4,13.3z"/>
		
			<linearGradient id="SVGID_00000099661862427563741160000016054217859256560030_" gradientUnits="userSpaceOnUse" x1="2914.7888" y1="6.5251" x2="2913.4407" y2="19.2174" gradientTransform="matrix(-1 0 0 1 2920.126 0)">
			<stop  offset="0" style="stop-color:#FFC444"/>
			<stop  offset="0.9964" style="stop-color:#F36F56"/>
		</linearGradient>
		<path style="fill:url(#SVGID_00000099661862427563741160000016054217859256560030_);" d="M4.8,14C4.8,14,4.8,14,4.8,14l2.6-0.4
			c0.1,0,0.1-0.1,0.1-0.1c0-0.1-0.1-0.1-0.1-0.1l-2.6,0.4c-0.1,0-0.1,0.1-0.1,0.1C4.7,14,4.7,14,4.8,14z"/>
	</g>
	
		<linearGradient id="SVGID_00000138543729307718066960000017990174471717932969_" gradientUnits="userSpaceOnUse" x1="2882.6833" y1="-30.3405" x2="2881.2058" y2="-27.9501" gradientTransform="matrix(-0.9999 1.380000e-02 1.380000e-02 0.9999 2885.4714 6.7094)">
		<stop  offset="0" style="stop-color:#FFC444"/>
		<stop  offset="0.9964" style="stop-color:#F36F56"/>
	</linearGradient>
	<path style="fill:url(#SVGID_00000138543729307718066960000017990174471717932969_);" d="M3.6,18.3c0,0-1.1-0.7-1.2-1.2
		c-0.1-0.5-0.1-1.5-0.1-1.5l0.6,1.4c0,0,0.3-0.1,0.4-0.5c0.1-0.4,0.3,0,0.3,0.3C3.5,17,3.6,18.3,3.6,18.3z"/>
	
		<linearGradient id="SVGID_00000034793813876412297590000001852394323852350370_" gradientUnits="userSpaceOnUse" x1="2858.9382" y1="8.5781" x2="2875.8757" y2="-27.613" gradientTransform="matrix(-0.9999 1.380000e-02 1.380000e-02 0.9999 2885.4714 6.7094)">
		<stop  offset="0" style="stop-color:#FFC444"/>
		<stop  offset="0.9964" style="stop-color:#F36F56"/>
	</linearGradient>
	<path style="fill:url(#SVGID_00000034793813876412297590000001852394323852350370_);" d="M11.8,9.2c-0.6,0.3-1.4,0.9-2.2,1.9
		c-2.1,2.8-1.3,5.7-3.1,6.8c-0.5,0.3-1.4,0.5-3,0L3,18.2c0,0-0.8,3.8,3.9,4c4.6,0.1,6.9-5.6,6.9-5.6L11.8,9.2z"/>
	
		<linearGradient id="SVGID_00000013193594820254316040000009887158452043619517_" gradientUnits="userSpaceOnUse" x1="2853.0325" y1="-21.2279" x2="2865.3848" y2="-47.6218" gradientTransform="matrix(-0.9999 1.380000e-02 1.380000e-02 0.9999 2885.4714 6.7094)">
		<stop  offset="0" style="stop-color:#48708A"/>
		<stop  offset="0.9964" style="stop-color:#2D383B"/>
	</linearGradient>
	<path style="fill:url(#SVGID_00000013193594820254316040000009887158452043619517_);" d="M16.3,3.8c0.2,0,0.3-0.2,0.4-0.1
		c0.1,0.1,0.1,0.4,0,0.6c-0.1,0.2-0.2,0.3-0.3,0.3c0.1,0.2,0.3,0.4,0.3,0.8C16.8,6,16.4,6.6,16.2,7c-0.8,1.6,0.3,4.1,1.6,5.4
		c1,1.1,1.5,0.7,2.1,1.5c1.2,1.7-0.5,3.5,0,5.7c0.9,3.4,6.2,4.5,6.4,4.6c0.1,0,0.1,0,0.2,0c2.4,0.4,6,1.1,8.6-0.8
		c1.9-1.4,2.9-4,2.8-6.2c0-0.6-0.2-2.8-1.9-4.7c-0.3-0.3-2-2.1-4.3-2.1c-1.2,0-1.5,0.4-2.4,0.1C28,10,27.3,8.9,26.8,8.1
		c-0.9-1.4-0.5-1.6-1.1-2.3c-1.2-1.3-2.8-0.3-4.1-1.5c-1.3-1.1-0.5-2.7-1.8-3.7c-1.3-1-3.9-0.7-4.5,0.4C14.8,2.1,15.8,3.8,16.3,3.8z
		"/>
</g>
</svg>
