<?xml version="1.0" encoding="UTF-8"?>
<svg id="Layer_1" data-name="Layer 1" xmlns="http://www.w3.org/2000/svg" version="1.1" viewBox="0 0 23.6 14">
  <defs>
    <style>
      .cls-1 {
        fill: #000;
        stroke-width: 0px;
      }
    </style>
  </defs>
  <path class="cls-1" d="M2.5,9.8c0,0,.1,0,.2,0,.9.5,1.9,1,2.9,1.3.8.3,1.6.5,2.5.7.6.1,1.2.2,1.8.3.9.1,1.8.1,2.7,0,.7,0,1.4-.1,2.2-.2,1.4-.2,2.8-.6,4.1-1.2,0,0,.1,0,.2,0,.1,0,.2,0,.2.1,0,0,0,.2,0,.3,0,0,0,0-.1.1-.8.5-1.6,1-2.4,1.3-.7.3-1.4.5-2.2.6-.6.1-1.3.2-1.9.3-.4,0-.8,0-1.2,0-1.5,0-2.9-.2-4.3-.7-1.7-.6-3.2-1.5-4.6-2.7,0,0,0,0,0,0,0,0,0-.1,0-.3ZM10.6,5.9h2.8c.2,0,.2,0,.3-.2,0-.4,0-.7,0-1.1,0-.3-.2-.6-.4-.9-.3-.3-.6-.5-1-.5-.4,0-.9,0-1.3,0-.7.2-1.2.8-1.4,1.5-.2.7-.2,1.3,0,2,.1.6.4,1,1,1.3.4.2.7.3,1.1.3.4,0,.7,0,1.1,0,.2,0,.4-.1.6-.2,0,0,.2,0,.2-.2,0-.1,0-.3,0-.4,0,0,0,0,0,0-.1,0-.2,0-.3,0-.5.2-1.1.2-1.7.1-.5,0-.8-.3-1-.8-.1-.3-.2-.5-.1-.9,0,0,.1,0,.2,0ZM10.4,5.3c0-.2,0-.3,0-.5,0-.4.3-.7.6-.8.4-.2.8-.2,1.1,0,.3.1.4.3.5.6,0,.2,0,.5,0,.8-.8,0-1.6,0-2.4,0ZM.9,4.2v3.7c0,0,0,.1,0,.2,0,0,0,.1.2.1.2,0,.4,0,.6,0,0,0,.1,0,.2-.1,0,0,0-.1,0-.2v-3.6c0,0,0-.1,0-.2h1.2c0,0,.1,0,.2,0,0-.2,0-.4,0-.6,0,0,0-.1-.1-.1,0,0,0,0-.1,0h-1.1c0,0-.1,0-.1,0,0,0,0,0,0,0,0-.4,0-.7,0-1.1,0-.2.2-.4.4-.5.3,0,.5,0,.8,0,0,0,.2,0,.3,0,0,0,0-.1,0-.1,0-.1,0-.2,0-.4,0-.1,0-.2-.2-.2-.4-.1-.9-.2-1.3,0-.2,0-.3.1-.5.2-.3.2-.5.6-.5,1,0,.3,0,.7,0,1v.2c-.3,0-.6,0-.8.1C0,3.5,0,3.6,0,3.7c0,.3,0,.3.3.3h.6v.2ZM18.1,7.4c-.2,0-.4,0-.6,0-.4,0-.6-.2-.6-.6v-2.7s0,0,0-.2h1.2c0,0,.1,0,.2,0,0-.2,0-.5,0-.7h-1.4v-1.2c0-.2,0-.2-.2-.2-.1,0-.2,0-.4,0-.2,0-.2,0-.2.2,0,.3,0,.5,0,.8,0,.1,0,.3,0,.4,0,0-.1,0-.2,0-.2,0-.3,0-.5,0,0,0-.2,0-.2.1,0,.2,0,.3,0,.5,0,0,.1,0,.2,0,.2,0,.3,0,.5,0s0,0,.1,0c0,0,0,.1,0,.2v2.6c0,.2,0,.4,0,.6.1.4.4.7.8.8.3,0,.7,0,1,0,.1,0,.3,0,.4,0,0,0,.1,0,.1-.1,0-.2,0-.4,0-.6,0,0-.2,0-.2,0ZM19,3.5c0,.1,0,.2.1.3.4,1.1.9,2.1,1.3,3.2.1.3.3.7.4,1,0,.1.1.2.3.2.2,0,.4,0,.5,0,.1,0,.2,0,.3-.2,0,0,0,0,0-.1.5-1.2.9-2.4,1.4-3.5.1-.3.2-.6.3-.9,0,0,0-.1,0-.2h-.8c-.1,0-.1.2-.2.3-.4,1.2-.8,2.4-1.3,3.6,0,0,0,0,0,0,0,0,0,0,0-.1-.4-1-.7-2.1-1.1-3.1,0-.2-.1-.4-.2-.6,0-.2-.1-.2-.3-.2h-.5c0,0-.1,0-.2,0,0,0,0,.1,0,.2ZM6.5,3.5v4.4h0c0,.2,0,.3.2.3.2,0,.4,0,.5,0,.1,0,.2,0,.2-.2h0v-3.4c.3-.3.6-.4,1-.5.2,0,.4,0,.6,0s.2,0,.2-.2c0-.1,0-.3,0-.4s0-.2-.2-.2c-.2,0-.5,0-.7,0-.3.1-.6.3-.8.6,0,0,0,0-.1.1,0-.2,0-.4,0-.5,0,0,0-.2-.1-.2h-.6c-.1,0,0,.2,0,.3ZM4.2,3.5v4.4h0c0,.2,0,.3.2.3h.5c.2,0,.2,0,.2-.2h0V3.5c0,0,0-.1,0-.2h-.8c0,0,0,.2,0,.3ZM17.7,10.2c.1,0,.3,0,.4,0,.4,0,.7,0,1.1,0,.2,0,.4,0,.6,0,.1,0,.2.1.3.3,0,0,0,.1,0,.2,0,.2,0,.4-.1.6-.1.4-.3.9-.5,1.3,0,0,0,.1,0,.2.1,0,.2,0,.2,0,.1-.1.3-.3.4-.4.4-.5.6-1.1.7-1.7,0-.2,0-.4,0-.7,0-.2,0-.3-.3-.4-.3,0-.5-.1-.8-.1-.6,0-1.2,0-1.7.3-.2,0-.4.2-.6.3,0,0-.1.1,0,.2,0,0,.1,0,.2,0ZM4.7,2.4c.4,0,.6-.2.6-.6,0-.3-.2-.6-.6-.6-.4,0-.6.2-.6.6,0,.3.2.6.6.6Z"/>
</svg>