<?xml version="1.0" encoding="UTF-8"?>
<svg id="Layer_1" data-name="Layer 1" xmlns="http://www.w3.org/2000/svg" version="1.1" viewBox="0 0 18 14">
  <defs>
    <style>
      .cls-1 {
        fill: #010101;
        fill-rule: evenodd;
        stroke-width: 0px;
      }
    </style>
  </defs>
  <path class="cls-1" d="M18,9.7l-1.2-5.1c-.3-1.4-1.6-2.8-3.5-2.8H4.8c-1.4,0-3.1.9-3.5,2.8L0,9.7c-.3,1.4.7,2.7,2.2,2.7s1.2-.3,1.5-.8l.9-1.6c.2-.3.5-.4.8-.4h7.2c.3,0,.6.2.8.4l.9,1.6c.3.5.9.8,1.5.8,1.4,0,2.5-1.3,2.2-2.7ZM6.8,6.2h-.6v.6c0,.3-.2.5-.5.5s-.5-.2-.5-.5v-.6h-.6c-.3,0-.5-.2-.5-.5s.2-.5.5-.5h.6v-.6c0-.3.2-.5.5-.5s.5.2.5.5v.6h.6c.3,0,.5.2.5.5,0,.3-.2.5-.5.5ZM11.3,6.2c-.3,0-.5-.2-.5-.5s.2-.5.5-.5.5.2.5.5-.2.5-.5.5ZM12.4,7.4c-.3,0-.5-.2-.5-.5s.2-.5.5-.5.5.2.5.5-.2.5-.5.5ZM12.4,5.1c-.3,0-.5-.2-.5-.5s.2-.5.5-.5.5.2.5.5-.2.5-.5.5ZM13.6,6.2c-.3,0-.5-.2-.5-.5s.2-.5.5-.5.5.2.5.5c0,.3-.2.5-.5.5Z"/>
</svg>