<?xml version="1.0" encoding="UTF-8"?>
<svg id="Layer_1" data-name="Layer 1" xmlns="http://www.w3.org/2000/svg" version="1.1" viewBox="0 0 21.2 14">
  <defs>
    <style>
      .cls-1 {
        fill: #010101;
        stroke-width: 0px;
      }
    </style>
  </defs>
  <path class="cls-1" d="M0,12.1h1.7v-7.5H0v7.5ZM1,3.7c.5,0,1-.4,1-1s-.4-1-1-1h0c-.5,0-1,.4-1,1s.4,1,1,1h0ZM7.7,1.8c-3,0-4.8,2-4.8,5.2s1.9,5.2,4.8,5.2,4.8-2,4.8-5.2S10.6,1.8,7.7,1.8ZM7.7,3.3c1.8,0,3,1.4,3,3.7s-1.2,3.7-3,3.7-3-1.4-3-3.7,1.1-3.7,3-3.7h0ZM13.2,9.2c0,1.9,1.6,3,3.9,3s4-1.2,4-3.1-.9-2.4-2.9-2.8l-1.2-.3c-1.2-.3-1.8-.7-1.8-1.4s.8-1.4,1.9-1.4,2,.6,2,1.5h1.7c0-1.8-1.5-3-3.8-3s-3.8,1.2-3.8,3,.9,2.4,2.8,2.8l1.3.3c1.3.3,1.8.7,1.8,1.5s-.9,1.5-2.1,1.5-2.2-.6-2.3-1.5c0,0-1.8,0-1.8,0Z"/>
</svg>