<?xml version="1.0" encoding="UTF-8"?>
<svg id="Layer_1" data-name="Layer 1" xmlns="http://www.w3.org/2000/svg" version="1.1" viewBox="0 0 16 14">
  <defs>
    <style>
      .cls-1 {
        fill: #010101;
        fill-rule: evenodd;
        stroke-width: 0px;
      }
    </style>
  </defs>
  <path class="cls-1" d="M13.9,12.3v-.6h.6v.6h-.6ZM15.4,12.3v-.6c0-.2-.2-.4-.4-.4h-4.1c-.2,0-.4.2-.4.4v.6c0,.2.2.4.4.4h4.1c.2,0,.4-.2.4-.4h0ZM15.4,9.3V1.7c0-.2-.2-.4-.4-.4H1.2c-.2,0-.4.2-.4.4v7.5c0,.2.2.4.4.4h13.8c.2,0,.4-.2.4-.4h0ZM6.7,11.1v-.6h2.8v.6h-2.8ZM15,10.6h-4.1c-.6,0-1,.5-1,1v.6c0,.6.5,1,1,1h4.1c.6,0,1-.5,1-1v-.6c0-.6-.5-1-1-1h0ZM4.9,12.7h-.6v-.4c0-.6.5-1,1-1h4.3,0c0,.2,0,.3,0,.4v.2h-4.2c-.2,0-.4.2-.4.4v.4h0ZM15,.7c.6,0,1,.5,1,1v7.5c0,.6-.5,1-1,1H1.2c-.6,0-1-.5-1-1V1.7C.1,1.2.6.7,1.2.7c0,0,13.8,0,13.8,0ZM1.9,7.3v-3.6c0-.2.1-.4.4-.4s.4.2.4.4v3.6c0,.2-.1.4-.4.4s-.4-.2-.4-.4h0ZM3.6,7.3c0,.2.1.4.4.4s.4-.2.4-.4v-1.2c.2,0,.4,0,.5,0,.9,0,1.7-.5,1.7-1.5s-.7-1.4-1.7-1.4-.6,0-1,0c-.2,0-.4.2-.4.4v3.5h0ZM4.9,5.5c-.2,0-.4,0-.5,0v-1.5c.2,0,.3,0,.5,0,.6,0,.9.2.9.7,0,.6-.4.8-.9.8h0ZM7,3.3c-.2,0-.4.1-.4.3s.1.3.4.3h1.1v3.3c0,.2.1.4.4.4s.4-.2.4-.4v-3.3h1.1c.2,0,.4-.1.4-.3s-.1-.3-.4-.3h-3ZM11.2,3.6c-.1-.3-.3-.4-.5-.3-.2,0-.3.4-.2.6l1.5,3.5c0,.2.2.3.4.3s.3,0,.4-.3l1.4-3.6c0-.2,0-.4-.1-.5-.3-.1-.4,0-.5.3l-1.1,2.9-1.2-3Z"/>
</svg>