<?xml version="1.0" encoding="UTF-8"?>
<svg xmlns="http://www.w3.org/2000/svg" xmlns:xlink="http://www.w3.org/1999/xlink" version="1.1" viewBox="0 0 4341.6 2129.8">
  <defs>
    <style>
      .cls-1 {
        fill: none;
      }

      .cls-2 {
        fill: #323232;
      }

      .cls-3 {
        fill: #fc0;
      }

      .cls-4 {
        fill: #232323;
      }

      .cls-5 {
        fill: #beb8f2;
      }

      .cls-6 {
        fill: url(#linear-gradient-7);
      }

      .cls-7 {
        fill: url(#linear-gradient-5);
      }

      .cls-8 {
        fill: url(#linear-gradient-6);
      }

      .cls-9 {
        fill: url(#linear-gradient-9);
      }

      .cls-10 {
        fill: url(#linear-gradient-4);
      }

      .cls-11 {
        fill: url(#linear-gradient-3);
      }

      .cls-12 {
        fill: url(#linear-gradient-2);
      }

      .cls-13 {
        fill: url(#linear-gradient);
      }

      .cls-14 {
        fill: #225663;
      }

      .cls-15 {
        fill: #296878;
      }

      .cls-16 {
        fill: #c42b34;
      }

      .cls-17 {
        clip-path: url(#clippath-1);
      }

      .cls-18 {
        clip-path: url(#clippath-3);
      }

      .cls-19 {
        clip-path: url(#clippath-4);
      }

      .cls-20 {
        clip-path: url(#clippath-2);
      }

      .cls-21 {
        fill: #da3940;
        fill-rule: evenodd;
      }

      .cls-22 {
        fill: #fcfdfe;
      }

      .cls-23 {
        fill: #fff;
      }

      .cls-24 {
        fill: #76a0ab;
      }

      .cls-25 {
        fill: url(#linear-gradient-8);
      }

      .cls-25, .cls-26, .cls-27 {
        opacity: .3;
      }

      .cls-25, .cls-27 {
        isolation: isolate;
      }

      .cls-28 {
        fill: #1c4752;
      }

      .cls-29 {
        fill: url(#linear-gradient-10);
      }

      .cls-30 {
        fill: url(#linear-gradient-11);
      }

      .cls-31 {
        fill: url(#linear-gradient-12);
      }

      .cls-32 {
        fill: url(#linear-gradient-13);
      }

      .cls-33 {
        fill: url(#linear-gradient-19);
      }

      .cls-34 {
        fill: url(#linear-gradient-14);
      }

      .cls-35 {
        fill: url(#linear-gradient-21);
      }

      .cls-36 {
        fill: url(#linear-gradient-20);
      }

      .cls-37 {
        fill: url(#linear-gradient-22);
      }

      .cls-38 {
        fill: url(#linear-gradient-15);
      }

      .cls-39 {
        fill: url(#linear-gradient-16);
      }

      .cls-40 {
        fill: url(#linear-gradient-17);
      }

      .cls-41 {
        fill: url(#linear-gradient-18);
      }

      .cls-42 {
        opacity: .5;
      }

      .cls-43 {
        opacity: .2;
      }

      .cls-44 {
        opacity: .2;
      }

      .cls-45 {
        fill: #508491;
      }

      .cls-46 {
        fill: #e63748;
      }

      .cls-27 {
        fill: url(#linear-gradient-23);
      }

      .cls-47 {
        fill: #2b4a52;
      }

      .cls-48 {
        fill: #a9c5cc;
      }

      .cls-49 {
        fill: #355259;
      }

      .cls-50 {
        fill: #6194b3;
      }

      .cls-51 {
        clip-path: url(#clippath);
      }
    </style>
    <clipPath id="clippath">
      <path class="cls-1" d="M1138.5,1195.7c74-99.5-40.9-189.3-108.2-319.8-78.8-152.8,112.9-179.1,113.6-309.5s-56-375.1,168.9-500.9c376.6-210.9,482,144.9,318.4,257.4-167.2,114.9-293.4,349-146,385.2,147.4,36.1,103.6,150.3,12.2,234.7-60.6,55.9-221.7,165.4-83,338.2,68,84.8-7.6,305.3-7.6,305.3l-208.4-69.6c-134-116.7-134-221.5-59.9-321Z"/>
    </clipPath>
    <linearGradient id="linear-gradient" x1="14261.1" y1="-8072.5" x2="13922.5" y2="-7165.8" gradientTransform="translate(17580.3 -604) rotate(146.1) scale(1 -1)" gradientUnits="userSpaceOnUse">
      <stop offset="0" stop-color="#bdbdbd"/>
      <stop offset="1" stop-color="#707070"/>
    </linearGradient>
    <clipPath id="clippath-1">
      <path class="cls-1" d="M1138.5,1195.7c74-99.5-40.9-189.3-108.2-319.8-78.8-152.8,112.9-179.1,113.6-309.5s-56-375.1,168.9-500.9c376.6-210.9,482,144.9,318.4,257.4-167.2,114.9-293.4,349-146,385.2,147.4,36.1,103.6,150.3,12.2,234.7-60.6,55.9-221.7,165.4-83,338.2,68,84.8-1.1,334.6-1.1,334.6l-214.9-98.9c-134-116.7-134-221.5-59.9-321Z"/>
    </clipPath>
    <linearGradient id="linear-gradient-2" x1="5886.4" y1="-7530.5" x2="7352" y2="-7530.5" gradientTransform="translate(374 10957.2) rotate(-33.9)" gradientUnits="userSpaceOnUse">
      <stop offset="0" stop-color="#b5b5b5"/>
      <stop offset="1" stop-color="#9c9c9c"/>
    </linearGradient>
    <clipPath id="clippath-2">
      <path class="cls-1" d="M1687.6,1425.4c38-82.6,269.6-117.3,209.2-277.7-44.3-117.4-210.6-160.8,2-330.4,212.7-169.7,291.3-548.5,58.1-593.8-133.7-26.1-189.5,195.6-331.8,230.5-135.1,33.1-186.2,149.4-148,298,38.1,148.6-42.4,174-144.5,245.7-122.7,86.1-5.4,225.3,46.2,284.1,41.7,47.4,88.6,203.9,8.5,258.3-57.7,39.1-10.6,111.7,20.4,149.4l304.5-93.5c-24-39.2-54.3-105.9-24.6-170.6Z"/>
    </clipPath>
    <linearGradient id="linear-gradient-3" x1="13741.4" y1="1855.7" x2="15100" y2="2836.1" gradientTransform="translate(16771.7 3362.3) rotate(-180)" gradientUnits="userSpaceOnUse">
      <stop offset="0" stop-color="#bee2eb"/>
      <stop offset=".3" stop-color="#cae7ef"/>
      <stop offset=".7" stop-color="#e9f5f8"/>
      <stop offset="1" stop-color="#fff"/>
    </linearGradient>
    <clipPath id="clippath-3">
      <path class="cls-1" d="M1555.4,1558.7h1566.1c45.4,0,82.1-36.8,82.1-82.1v-935.8c0-45.4-36.8-82.1-82.1-82.1h-1566.1c-45.4,0-82.1,36.8-82.1,82.1v935.8c0,45.3,36.7,82.1,82.1,82.1Z"/>
    </clipPath>
    <linearGradient id="linear-gradient-4" x1="15216.2" y1="1616.4" x2="16207.7" y2="2304.9" gradientTransform="translate(16771.7 3362.3) rotate(-180)" gradientUnits="userSpaceOnUse">
      <stop offset="0" stop-color="#bee2eb"/>
      <stop offset=".3" stop-color="#cae7ef"/>
      <stop offset=".7" stop-color="#e9f5f8"/>
      <stop offset="1" stop-color="#fff"/>
    </linearGradient>
    <clipPath id="clippath-4">
      <path class="cls-1" d="M544,1763h1022c34.4,0,62.3-27.9,62.3-62.3v-601.4c0-36.3-29.4-65.7-65.7-65.7h-1015.3c-36.6,0-66.2,29.6-66.2,66.2v600.2c0,34.8,28.2,63,62.9,63Z"/>
    </clipPath>
    <linearGradient id="linear-gradient-5" x1="13701.3" y1="1574.3" x2="13923.7" y2="1988.6" gradientTransform="translate(16771.7 3362.3) rotate(-180)" gradientUnits="userSpaceOnUse">
      <stop offset="0" stop-color="#bee3eb"/>
      <stop offset=".3" stop-color="#cae8ef"/>
      <stop offset=".7" stop-color="#e9f6f8"/>
      <stop offset="1" stop-color="#fff"/>
    </linearGradient>
    <linearGradient id="linear-gradient-6" x1="11151.4" y1="-4253" x2="12691.7" y2="-2654.6" gradientTransform="translate(12218.2 3638.4) rotate(173.4) scale(1 -1)" gradientUnits="userSpaceOnUse">
      <stop offset="0" stop-color="#ffc444"/>
      <stop offset="1" stop-color="#f36f56"/>
    </linearGradient>
    <linearGradient id="linear-gradient-7" x1="11029.3" y1="-4081.1" x2="11975.6" y2="-3578.4" gradientTransform="translate(12035.3 5326) rotate(-177.5) scale(1 -1)" gradientUnits="userSpaceOnUse">
      <stop offset="0" stop-color="#ffc444"/>
      <stop offset="1" stop-color="#f36f56"/>
    </linearGradient>
    <linearGradient id="linear-gradient-8" x1="8865.5" y1="-3982.8" x2="9474.5" y2="-3982.8" gradientTransform="translate(-8243.1 5037.7) rotate(-1)" gradientUnits="userSpaceOnUse">
      <stop offset="0" stop-color="#ffc444"/>
      <stop offset="1" stop-color="#f36f56"/>
    </linearGradient>
    <linearGradient id="linear-gradient-9" x1="10670.9" y1="-3855.9" x2="11529" y2="-4015.4" gradientTransform="translate(12035.3 5326) rotate(-177.5) scale(1 -1)" gradientUnits="userSpaceOnUse">
      <stop offset="0" stop-color="#3fa0b8"/>
      <stop offset=".1" stop-color="#3b96ac"/>
      <stop offset=".3" stop-color="#307a8d"/>
      <stop offset=".5" stop-color="#1e4d5a"/>
      <stop offset=".6" stop-color="#1a424d"/>
    </linearGradient>
    <linearGradient id="linear-gradient-10" x1="11376.8" y1="-3703" x2="11155.9" y2="-4226.1" gradientTransform="translate(12035.3 5326) rotate(-177.5) scale(1 -1)" gradientUnits="userSpaceOnUse">
      <stop offset=".4" stop-color="#3fa0b8"/>
      <stop offset=".7" stop-color="#3b95ac"/>
      <stop offset="1" stop-color="#348499"/>
    </linearGradient>
    <linearGradient id="linear-gradient-11" x1="10937.6" y1="-4293.5" x2="11037" y2="-3928.1" gradientTransform="translate(12035.3 5326) rotate(-177.5) scale(1 -1)" gradientUnits="userSpaceOnUse">
      <stop offset=".4" stop-color="#3fa0b8"/>
      <stop offset=".7" stop-color="#3b95ac"/>
      <stop offset="1" stop-color="#348499"/>
    </linearGradient>
    <linearGradient id="linear-gradient-12" x1="11030.2" y1="-3945.1" x2="10936.4" y2="-4311.9" gradientTransform="translate(12035.3 5326) rotate(-177.5) scale(1 -1)" gradientUnits="userSpaceOnUse">
      <stop offset="0" stop-color="#444b8c"/>
      <stop offset="1" stop-color="#26264f"/>
    </linearGradient>
    <linearGradient id="linear-gradient-13" x1="11003.6" y1="-4063.7" x2="11454" y2="-4183.2" gradientTransform="translate(12035.3 5326) rotate(-177.5) scale(1 -1)" gradientUnits="userSpaceOnUse">
      <stop offset="0" stop-color="#ffc444"/>
      <stop offset="1" stop-color="#f36f56"/>
    </linearGradient>
    <linearGradient id="linear-gradient-14" x1="10943.1" y1="-3898.6" x2="10844.4" y2="-4284.5" gradientTransform="translate(12035.3 5326) rotate(-177.5) scale(1 -1)" gradientUnits="userSpaceOnUse">
      <stop offset=".4" stop-color="#3fa0b8"/>
      <stop offset=".7" stop-color="#3b95ac"/>
      <stop offset="1" stop-color="#348499"/>
    </linearGradient>
    <linearGradient id="linear-gradient-15" x1="10277.7" y1="-4409.8" x2="10284.3" y2="-4583.9" gradientTransform="translate(12030.4 3724.5) rotate(173.6) scale(1 -1)" gradientUnits="userSpaceOnUse">
      <stop offset="0" stop-color="#ffc444"/>
      <stop offset="1" stop-color="#f36f56"/>
    </linearGradient>
    <linearGradient id="linear-gradient-16" x1="10576.3" y1="-4379.8" x2="10478.2" y2="-4628.9" gradientTransform="translate(-8272 6623.1) rotate(-9.9)" gradientUnits="userSpaceOnUse">
      <stop offset="0" stop-color="#48708a"/>
      <stop offset="1" stop-color="#2d383b"/>
    </linearGradient>
    <linearGradient id="linear-gradient-17" x1="10291.6" y1="-4551.1" x2="10288.4" y2="-4292.4" gradientTransform="translate(12030.4 3724.5) rotate(173.6) scale(1 -1)" gradientUnits="userSpaceOnUse">
      <stop offset="0" stop-color="#ffc444"/>
      <stop offset="1" stop-color="#f36f56"/>
    </linearGradient>
    <linearGradient id="linear-gradient-18" x1="858.4" y1="2525.5" x2="1193.9" y2="2525.5" gradientTransform="translate(0 3362.3) scale(1 -1)" gradientUnits="userSpaceOnUse">
      <stop offset="0" stop-color="#48708a"/>
      <stop offset="1" stop-color="#2d383b"/>
    </linearGradient>
    <linearGradient id="linear-gradient-19" x1="779" y1="2621.7" x2="1076.3" y2="2621.7" gradientTransform="translate(0 3362.3) scale(1 -1)" gradientUnits="userSpaceOnUse">
      <stop offset="0" stop-color="#48708a"/>
      <stop offset="1" stop-color="#2d383b"/>
    </linearGradient>
    <linearGradient id="linear-gradient-20" x1="11591.7" y1="-4047.2" x2="13132" y2="-2448.7" gradientTransform="translate(12035.3 5326) rotate(-177.5) scale(1 -1)" gradientUnits="userSpaceOnUse">
      <stop offset="0" stop-color="#ffc444"/>
      <stop offset="1" stop-color="#f36f56"/>
    </linearGradient>
    <linearGradient id="linear-gradient-21" x1="10952.6" y1="-3938" x2="11658" y2="-4006.8" gradientTransform="translate(12035.3 5326) rotate(-177.5) scale(1 -1)" gradientUnits="userSpaceOnUse">
      <stop offset="0" stop-color="#ffc444"/>
      <stop offset="1" stop-color="#f36f56"/>
    </linearGradient>
    <linearGradient id="linear-gradient-22" x1="10576.5" y1="-3780.2" x2="11434.7" y2="-3939.6" gradientTransform="translate(12035.3 5326) rotate(-177.5) scale(1 -1)" gradientUnits="userSpaceOnUse">
      <stop offset="0" stop-color="#ffc444"/>
      <stop offset="1" stop-color="#f36f56"/>
    </linearGradient>
    <linearGradient id="linear-gradient-23" x1="10987.4" y1="-3911.6" x2="11506.6" y2="-4022.6" gradientTransform="translate(12035.3 5326) rotate(-177.5) scale(1 -1)" gradientUnits="userSpaceOnUse">
      <stop offset="0" stop-color="#ffc444"/>
      <stop offset="1" stop-color="#f36f56"/>
    </linearGradient>
  </defs>
  <!-- Generator: Adobe Illustrator 28.6.0, SVG Export Plug-In . SVG Version: 1.2.0 Build 709)  -->
  <g>
    <g id="Layer_1">
      <g id="Illustration">
        <g>
          <g>
            <g class="cls-51">
              <path class="cls-13" d="M1138.5,1195.7c74-99.5-40.9-189.3-108.2-319.8-78.8-152.8,112.9-179.1,113.6-309.5s-56-375.1,168.9-500.9c376.6-210.9,482,144.9,318.4,257.4-167.2,114.8-268.6,317.2-129.9,378.8,122.6,54.5,87.6,156.7-3.8,241-60.6,55.9-221.7,165.4-83,338.2,68,84.8-3.2,328-3.2,328l-212.8-92.3c-134.1-116.6-134.1-221.4-60-320.9Z"/>
            </g>
            <g class="cls-17">
              <g class="cls-42">
                <path class="cls-22" d="M1234.8,875.2c6.7-198.4,44.4-365.5,112.1-496.7,84.7-164.3,216.7-272.6,392.4-322l1.5,5.1c-394.8,110.8-490.1,503.7-500.7,813.7-11.5,336.6,71.7,651,72.6,654.2l-5.1,1.4c-.9-3.2-84.3-318.3-72.8-655.7Z"/>
                <path class="cls-22" d="M1325.3,22.7l5.1.9c-.5,2.5-46.3,253.1-10.8,424l-5.2,1.1c-35.6-171.9,10.4-423.6,10.9-426Z"/>
                <path class="cls-22" d="M1370.8,336.7c169.1-125.5,340.1-85.6,341.8-85.2l-1.2,5c-1.7-.4-170.4-39.7-337.5,84.3l-3.1-4.1Z"/>
                <path class="cls-5" d="M1239.5,1095c38.7-253.5,373.3-343.7,376.6-344l.5,5.2c-3.4.6-333.6,88.3-372.1,339.5l-5-.7Z"/>
                <path class="cls-5" d="M1008.9,743.2l2.4-4.6c1.9,1,182.4,95.9,228.2,251.5l-5.1,1.5c-45.1-153.5-223.7-247.5-225.5-248.4Z"/>
                <path class="cls-5" d="M1295.3,1479.8c-.3-99.4,128.7-185.4,134.2-189l2.9,4.4c-1.3.8-132.1,87.9-131.8,184.5h-5.3Z"/>
                <path class="cls-5" d="M1103.6,1236c-7.8-4.9-11-6.8-12-7.8l3.6-3.8c.8.7,5.6,3.7,11.2,7.1,39.5,24.5,159.7,98.8,178.6,172.7l-5.1,1.2c-18.4-71.8-137.2-145.3-176.3-169.4Z"/>
              </g>
            </g>
          </g>
          <g>
            <path class="cls-12" d="M1724.5,1384.3c38-82.6,232.8-76.1,172.4-236.5-44.3-117.5-210.7-160.9,2-330.5,212.7-169.6,291.3-548.5,58.1-593.8-133.7-26.1-189.5,195.6-331.8,230.5-135.1,33.1-186.2,149.4-148,298,38.1,148.6-42.4,174-144.5,245.7-122.7,86.1-5.4,225.3,46.2,284.1,41.7,47.4,88.6,203.9,8.5,258.3-51.7,35-156,143.4-126.5,183,18.9-5.2,23.5,51.1,42.5,45.9,94.8-33.4,107.6,25,107.6,25,1.9-1.5,88.6,60.6,265.9-289.6,11.4-22.9,35.3-93.5,47.6-120.1Z"/>
            <g class="cls-20">
              <g class="cls-42">
                <path class="cls-22" d="M2052.4,228.3l-4.8-5c-360.8,342.8-552.5,867.5-500.4,1369.4l6.9-.7c-51.9-499.8,139-1022.4,498.3-1363.7Z"/>
                <path class="cls-22" d="M1276.2,1024.4l-2.8,6.3c2.1,1,210.1,98,269.2,287.3l6.6-2.1c-60.1-192.3-270.9-290.6-273-291.5Z"/>
                <path class="cls-22" d="M1926,1173.2l-2.5-6.5c-3.5,1.4-344.8,133.9-383.2,331.3l6.8,1.4c37.7-193.6,375.4-324.8,378.9-326.2Z"/>
                <path class="cls-22" d="M1511,480.7l-5.3,4.5c1.5,1.8,159.8,188.3,142.7,346.9l6.8.8c17.5-161.6-142.7-350.4-144.2-352.2Z"/>
                <path class="cls-22" d="M2158.1,389l-.6-6.8c-2.5.2-247.1,21.4-366.6,158.3l5.2,4.6c117.7-134.9,359.6-155.8,362-156.1Z"/>
              </g>
            </g>
          </g>
        </g>
        <g>
          <path class="cls-49" d="M87,1859.5h4142.2c17.6,0,32-14.4,32-32s-14.4-32-32-32H87c-17.6,0-32,14.4-32,32s14.4,32,32,32Z"/>
          <g>
            <path class="cls-15" d="M1927.7,1806.4h821.6c20.3,0,36.9-16.6,36.9-36.9s-16.6-36.9-36.9-36.9h-821.6c-20.3,0-36.9,16.6-36.9,36.9,0,20.3,16.5,36.9,36.9,36.9Z"/>
            <rect class="cls-28" x="2151.4" y="1351" width="374.1" height="381.8"/>
            <path class="cls-15" d="M1558.2,1557.7h1560.5c46.9,0,84.9-38,84.9-84.9v-930.2c0-46.9-38-84.9-84.9-84.9h-1560.5c-46.9,0-84.9,38-84.9,84.9v930.2c0,46.8,38,84.9,84.9,84.9Z"/>
            <g>
              <path class="cls-11" d="M1571.1,1514.5h1534.8c34.3,0,62.1-27.8,62.1-62.1v-890.1c0-34.3-27.8-62.1-62.1-62.1h-1534.8c-34.3,0-62.1,27.8-62.1,62.1v890.1c0,34.3,27.8,62.1,62.1,62.1Z"/>
              <path class="cls-21" d="M1975.3,1262l-8.1,27.3h-83v-3.8l10.9-7.5v-88l-10.9-7.5v-3.8h87l1.9,1.9-5.6,24.9h-3.8c-3.7-15.2-8.6-17.4-34-17.4h-12v40.5l40.1-2.4,1,.8-3.7,13.1-1,.3-36.2-3.7v43.4h11.3c20.8,0,31.3-3.2,42.5-19.5l3.7,1.3ZM2830.8,1183l-10.9,7.5v97.8l-1.4,1.4h-17.1l-63.2-86.8v75.5l12.8,7.5v3.8h-35v-3.8l10.9-7.5v-88.3l-12.3-7v-3.8h33.2l60.8,83.6v-72.6l-12.8-7.5v-3.8h35v4h0ZM2649.3,1278.3l12.8,7.5v3.8h-45.8v-3.8l10.9-7.5v-88l-10.9-7.5v-3.8h46.6c32.6,0,49.2,11,49.2,32.2s-23.6,40.7-58.9,40.7-2.9,0-3.8-.3v26.7h0ZM2607.3,1183l-10.9,7.2-36.4,99.3h-20.9l-38.6-98.8-11.3-7.7v-3.8h45.7v3.8l-11,7.5,31.3,80.1h1.3l26.5-80.3-11.3-7.5v-3.8h35.9l-.2,4h0ZM2649.3,1242.9c24.6.8,39.7-11,39.7-30.8s-8.5-24.6-25.4-24.6-10.1,1.3-14.2,3.2l-.2,52.2h0ZM2180.8,1243.9c0,27.5-18.5,47.2-44.4,47.2s-14-1.9-20-4.6v27l12.8,7.5v3.8h-45v-3.8l10.9-7.5v-95.9l-10.9-6.5v-3.8l29.2-5.7,3.2,2.2v12.3c7-8.6,17.9-14.2,29.2-14.2,20.4-.3,35,17.9,35,42.1h0ZM2251.8,1220.7h-3.8c-2.9-1.8-5.7-2.7-8.9-2.7-6.5,0-12.8,2.4-18,7.2v53l13.1,7.5v3.8h-45.7v-3.8l10.9-7.5v-61l-10.9-6.5v-3.8l29.2-5.7,3.2,2.2v13.7c5.6-9.1,15.5-15.6,25.4-15.6s8.5,1.3,11.7,3.7l-6.1,15.6ZM2318.2,1244.8c-11.8,0-25.1-.3-39.6-1,1.9,19.5,12.8,31.1,30.3,31.1s17.4-2.7,23.5-7.5l3.7,2.9c-5.7,13.7-18.8,21.4-35.8,21.4-26,0-43.4-17.6-43.4-44.5s17.4-45.8,43.6-45.8,21.2,3.8,27.9,11.3c6.5,7.5,9.6,17.4,9.4,29.4l-2.7,2.7c-3.5,0-9.3,0-16.9,0h0ZM2353.2,1264.4h3.7c7,11.3,16.9,17.6,25.5,17.6s12.6-4.2,12.6-10.4-4.3-11-14.7-15.2l-8-2.9c-15-5.6-23.9-14.5-23.9-26.3s13.7-25.9,34.3-25.9,23.1,2.9,31.3,7.7l-8.5,14.5h-3.7c-5.7-8.9-13.1-13.6-21.4-13.6s-12.6,4.2-12.6,9.9,4.6,10.1,18,15.5l8.9,3.7c13.7,5.3,19.8,13.6,19.8,24.1,0,16.9-13.6,27.3-34.3,27.3s-25.5-3.4-35-9.1l7.8-16.9ZM2430.6,1264.4h3.7c7,11.3,16.9,17.6,25.5,17.6s12.6-4.2,12.6-10.4-4.3-11-14.7-15.2l-8-2.9c-15-5.6-23.9-14.5-23.9-26.3s13.7-25.9,34.3-25.9,23.1,2.9,31.3,7.7l-8.5,14.5h-3.7c-5.7-8.9-13.1-13.6-21.4-13.6s-12.6,4.2-12.6,9.9,4.6,10.1,18,15.5l8.9,3.7c13.7,5.3,19.8,13.6,19.8,24.1,0,16.9-13.6,27.3-34.3,27.3s-25.5-3.4-35-9.1l7.8-16.9ZM2039.7,1245.3l26,33,9.6,7.5v3.8h-43.9v-3.8l9.1-6.7-17.6-23.9-16.9,23.9,10.1,6.7v3.8h-35v-3.8l10.9-7.2,25.1-30.8-25.9-32.6-9.9-7.7v-3.8h43.6v3.8l-8.9,6.7,17.4,23.6,16.9-23.6-10.1-6.7v-3.8h35.3v3.8l-10.9,7.2-24.9,30.5ZM2315.3,1233.5c-1.9-15.5-9.1-22.7-18.8-22.7s-17.6,10.4-18,25.1l36.9-2.4ZM2159.7,1252.6c0-19.5-9.4-35.8-24.9-35.8s-12.6,2.2-18.5,6.5v46.1c4.8,7.5,12.6,11.3,21.4,11.3,13.7,0,22-10.5,22-28.3h0ZM2238.4,1117.4c-55.7,0-91.5-31.1-91.5-74.5s4.3-31.6,20.8-67h-58.4l53.5-114.1h373.2c8.5,0,14.2-6.2,14.2-13.7s-5.7-13.7-14.2-13.7h-302.2l26.5-56.3c16.4-34.8,52-57.6,91-57.6h126.9c73.3,0,127.4,50.1,127.4,115.6s-71.7,139.8-154.5,139.8h-245c-7.5,15.5,1,27.5,19,27.5h195.4c32.2,0,57.5,22.7,57.5,51.6s-32.2,62.3-69,62.3h-170.5v.5Z"/>
            </g>
            <g class="cls-18">
              <g class="cls-26">
                <path class="cls-23" d="M3209.4,1424.7v120.9c0,17.4-18.4,32.2-41,32.9l-1876.1,61.6c-28.6.9-52-14.3-52-33.9V482.3c0-19.6,23.5-34.9,52-34l285.4,8.9c93.8,29.6,171.1,73.1,212.3,136.9,81.1,125.5-31.9,244.9,63.9,319.4,139.4,108.4,460.1-70,620.6,45,115.5,82.8,14.6,223.3,139.5,296.5,110.8,64.9,238.2-17.6,392.4,22.8,64.1,17,137,56.3,203,146.9Z"/>
              </g>
            </g>
          </g>
          <g>
            <g>
              <path class="cls-15" d="M544.6,1763h1021c34.7,0,62.8-28.1,62.8-62.8v-600.3c0-36.6-29.7-66.2-66.2-66.2h-1014.4c-36.8,0-66.7,29.9-66.7,66.7v599.2c0,35,28.4,63.4,63.5,63.4Z"/>
              <path class="cls-10" d="M550.8,1734.4h1008c25.4,0,46-20.6,46-46v-580.5c0-25.4-20.6-46-46-46h-1008c-25.4,0-46,20.6-46,46v580.5c-.1,25.4,20.5,46,46,46Z"/>
              <g>
                <g>
                  <path class="cls-3" d="M1188.1,1331.1c0-85-68.9-153.9-153.9-153.9s-153.9,68.9-153.9,153.9,68.9,153.7,153.9,153.7c85.3.6,153.9-68.6,153.9-153.7Z"/>
                  <path class="cls-2" d="M1108.5,1305.5c0-41.9-34-75.9-75.9-75.9s-75.9,34-75.9,75.9-18,118.1,24.2,118.1c187.2-.4,127.7-75.9,127.7-118.1ZM1015.7,1349.4c-15.5,0-28.3-18-28.3-39.9s12.8-39.9,28.3-39.9,28.3,18,28.3,39.9-12.7,39.9-28.3,39.9ZM1080.9,1336.1c-12.1,0-22.4-13.7-22.4-31.2s9.8-31.2,22.4-31.2,22.4,13.7,22.4,31.2c0,17.6-9.8,31.2-22.4,31.2Z"/>
                </g>
                <g>
                  <path class="cls-2" d="M827.4,1594.9c-23,0-28.7-14.4-29.4-26.5-.7-24.9,12.1-51.7,43.8-51.7s10,.5,15.1,1.6l-3,10.9c-4.6-1.2-9.1-2.3-13.9-2.3-20.1,0-28.7,19.2-28.3,38.1.7,12.1,6.4,17.8,19.2,17.8s10-.7,15.1-1.6c2.3-.7,5.3-1.6,7.5-2.3.7,3.4,1.6,6.8,1.6,10.9-2.3,1.2-5.3,1.6-7.5,2.3-6.4,2.1-13.3,2.8-20.1,2.8h0Z"/>
                  <path class="cls-2" d="M867.5,1610.4c-4.6,5.7-12.1,8.6-19.2,8.6s-5,0-7.5-.7l1.6-10.9c2,.7,4.1,1.2,6.4,1.2,3.4,0,6.8-1.6,9.1-4.1,3.4-3.4,4.6-8,4.1-12.8-1.2-15.9-4.1-31.5-9.1-46.7h13.9c3.4,11.4,5.3,23.2,5.7,35.1,0,1.2,0,3-.7,4.1h0c6.4-12.8,12.1-25.8,16.6-39.2h12.8c-11.2,35.5-22.1,53.8-33.7,65.4h0Z"/>
                  <path class="cls-2" d="M914.9,1595.6c-5.7,0-11.6-.7-17.3-1.6l9.8-61.6h0c-2.3-.7-5.7-.7-8.6-1.2l1.2-8c6.8-.7,13.9-1.2,20.7-1.2l-3.4,20.7c-1.2,5.7-3,12.1-4.6,17.8h0c4.6-9.8,11.6-16.6,20.1-16.6s11.6,4.6,12.1,15.5c1.1,18.6-8,36.2-29.9,36.2h0ZM928.6,1555c-6.8,0-15.1,16.2-16.6,26.5l-.7,3.4c1.6.7,4.1.7,5.7.7,11.6,0,16.2-13.2,16.2-23.7-.5-4.4-2-6.9-4.6-6.9Z"/>
                  <path class="cls-2" d="M959.9,1574.9v4.1c0,5.7,2.3,7.5,9.1,7.5s9.3-1.2,13.9-3l3.4-1.6-1.6,10.9c-6.1,2.3-13,3.4-19.6,3.4-12.8,0-17.3-5.7-17.8-16.6-.7-20.7,11.6-34.6,26.5-34.6s16.2,6.4,16.2,12.1c.9,10.7-10.5,16.4-30.1,17.8ZM973.1,1553.4c-6.4,0-10.3,5.7-12.1,12.8,11.6-.7,17.3-3,17.3-8s-1.8-4.8-5.3-4.8h0Z"/>
                  <path class="cls-2" d="M1022.1,1556.8c-8.6-3.4-16.6,11.6-19.2,27.2l-1.6,10.9h-12.1s5.3-32.8,5.7-37.4c.7-3.9-.7-8-3.4-10.9l17.3-1.6c-1.2,5.3-2.5,10.5-4.1,15.5h0c4.6-10.3,10.3-17.8,19.6-15.5l-2.3,11.8h0Z"/>
                  <path class="cls-2" d="M1064,1595.6c-20.1,0-32.4-10.3-32.8-28.7-2.3-25.3,16.6-47.9,42.2-50.2h5.7c7.3.2,14.4,1.2,21.4,3l-3.4,11.6c-6.1-2.3-12.6-3.4-19.2-3.4-19.6,0-33.5,16.2-32.8,36.9,0,10.3,8,19.6,19.2,19.6h3c3.9,0,7.8-.7,11.6-1.6h.7l4.1-27.2h12.1l-5.7,35.8c-8.6,2.3-17.3,3.9-26,4.1Z"/>
                  <path class="cls-2" d="M1145.5,1594.2h-12.8l4.6-30.5c1.2-6.4,0-8.6-3.4-8.6-6.8,0-15.1,15.5-16.6,27.2l-1.2,12.1h-12.8l9.8-62.3h0c-2.3-.7-5.7-.7-8.6-1.2l1.2-8c6.8-.7,13.9-1.2,20.7-1.2l-3.4,20.7c-1.2,5.7-3,11.6-4.6,17.3h0c4.1-8.6,10.9-16.6,20.1-16.6s12.8,6.8,10.9,16.2l-3.8,34.9h0Z"/>
                  <path class="cls-2" d="M1173,1595.6c-13.9,0-19.6-6.4-19.6-17.3-.7-20.7,12.8-33.5,28.3-33.5s19.6,7.5,20.1,17.8c.7,20.3-13.3,33.1-28.7,33.1h0ZM1179.9,1555c-9.1,0-14.4,10.9-13.9,20.7,0,5.3,2.3,8.6,8,8.6,8.6,0,14.4-9.8,14.4-20.7.2-5.7-2.5-8.6-8.5-8.6Z"/>
                  <path class="cls-2" d="M1268.6,1555h-11.6l-3.4,22.4c-1.2,5.7,0,7.5,4.1,7.5s4.3,0,6.4-.7l-1.2,10c-3.4.7-6.8,1.2-10.3,1.2-10.3,0-13.9-5.3-12.1-16.6l3.4-23.7h-8l1.6-9.8h7.5l2.3-15.1,12.8-2.3-3,17.8h13.2l-1.7,9.3h0Z"/>
                  <path class="cls-2" d="M1226.6,1553.4c2.5,0,5,.5,7.5,1.2l1.6-9.1c-3-.7-6.4-.7-9.1-1.2-13.9,0-20.7,6.8-20.7,16.2.7,11.6,13.2,13.2,13.2,19.6s-1.2,4.1-3,4.6h0l-1.2.5c-4.8,1.6-10,1.2-14.4-1.2-1.6,3.4-4.6,6.4-7.5,8.6,5.7,1.6,11.6,3,17.3,3,15.5,0,22.4-8.6,21.9-16.6-.7-10.9-13.2-13.9-13.2-19.6-.4-3.6,2.3-5.9,7.5-5.9h0Z"/>
                </g>
              </g>
            </g>
            <path class="cls-48" d="M474.7,1816.9h1164.8c14.9,0,27.1-12.2,27.1-27.1s-12.2-27.1-27.1-27.1H474.7c-14.9,0-27.1,12.2-27.1,27.1s12.2,27.1,27.1,27.1Z"/>
            <g class="cls-19">
              <g class="cls-26">
                <path class="cls-23" d="M1628.4,1728.4v90.7c0,13-13.5,24.2-30.2,24.7l-1379.9,46.2c-21,.7-38.2-10.8-38.2-25.5v-843.3c0-14.7,17.3-26.2,38.2-25.5l209.9,6.7c69,22.2,125.9,54.8,156.2,102.7,59.6,94.2-23.5,183.7,47,239.7,102.5,81.3,338.4-52.5,456.4,33.8,85,62.1,10.7,167.6,102.6,222.5,81.5,48.7,175.2-13.2,288.6,17.1,47.3,12.7,100.9,42.1,149.4,110.2Z"/>
              </g>
            </g>
            <path class="cls-45" d="M506.1,1801.8h84.6c6.2,0,11.2-5,11.2-11.2s-5-11.2-11.2-11.2h-84.6c-6.2,0-11.2,5-11.2,11.2s5,11.2,11.2,11.2Z"/>
            <path class="cls-45" d="M1161.3,1763.4v.8c0,10.5-8.6,19.1-19.1,19.1h-216.2c-10.5,0-19.1-8.6-19.1-19.1v-.8h254.4Z"/>
          </g>
          <g>
            <path class="cls-15" d="M2850.4,1837.3h212.5c19.9,0,36-16,36-35.8v-426.1c0-19.8-16.1-35.8-36-35.8h-212.5c-19.9,0-36,16-36,35.8v426.1c0,19.8,16.1,35.8,36,35.8Z"/>
            <path class="cls-7" d="M3062.6,1353.7c12.5,0,22.6,10.1,22.6,22.6v397.1c0,16.7-12,30.2-26.9,30.2h-203.1c-14.9,0-26.9-13.5-26.9-30.2v-397.1c0-12.5,10.1-22.6,22.6-22.6h211.7Z"/>
            <path class="cls-28" d="M2926.8,1827.9h57.9c5,0,9-4,9-8.9s-4-8.9-9-8.9h-57.9c-5,0-9,4-9,8.9s4,8.9,9,8.9Z"/>
            <path class="cls-28" d="M2814.2,1425.7h.3v36.6h-.3c-2.4,0-4.4-2-4.4-4.4v-27.8c-.1-2.5,1.9-4.4,4.4-4.4Z"/>
            <path class="cls-28" d="M2813.4,1465.3c.4,0,.7,0,1,0v36.4c-.3,0-.7,0-1,0-2.4,0-4.4-2-4.4-4.4v-27.9c0-2.3,2-4.3,4.4-4.3Z"/>
          </g>
          <g id="TotalVPN_Colour">
            <g id="WebShield-Logo-Text">
              <path id="Combined-Shape" class="cls-4" d="M2890.7,1610.1c8.7,0,14.6,5.8,14.6,15.9s-5.9,16.3-14.6,16.3-14.6-6-14.6-16.3c0-10.1,5.9-15.9,14.6-15.9ZM2971.7,1610.7v24.2h11.9v6.9h-20.2v-31.1h8.2ZM2950.9,1610.7l9.6,31.1h-8.8l-1.6-6.6h-8.8l-1.6,6.6h-8.5l9.6-31.1h10ZM2932.5,1610.7v6.9h-8.4v24.2h-8.4v-24.2h-8.4v-6.9h25.1ZM2874.3,1610.7v6.9h-8.4v24.2h-8.2v-24.2h-8.4v-6.9h25ZM2987.4,1610.1l8.1,23.5.7,2.5h.1l.7-2.5,8.2-23.5h4.6l-11.7,31.3h-3.7l-11.6-31.3h4.6ZM3026.2,1610.1c3.3,0,5.9.9,7.8,2.6,1.9,1.7,2.8,4,2.8,6.8s-.9,5.1-2.8,6.8-4.5,2.6-7.8,2.6h-7.8v12.6h-4.2v-31.3h12ZM3046.7,1610.1l15.2,24.2h.1v-24.2h4.2v31.3h-4.2l-15.2-24.2h-.1v24.2h-4.2v-31.3h4.2ZM2890.7,1617.3c-3.8,0-6.1,3.2-6.1,8.9s2.3,9.1,6.1,9.1,6.1-3.6,6.1-9.1-2.3-8.9-6.1-8.9ZM2945.7,1616.8h-.2c-.7,3.1-1.4,6.9-2.2,9.8l-.6,2.1h5.8l-.6-2.1c-.3-1.3-.7-2.9-1-4.5l-.4-1.9c-.2-1.1-.4-2.3-.8-3.5ZM3026.2,1613.5h-7.8v12.1h7.8c2.1,0,3.7-.6,4.8-1.7s1.6-2.6,1.6-4.3-.6-3.2-1.6-4.3c-1.1-1.2-2.7-1.8-4.8-1.8Z"/>
            </g>
            <g id="Total-VPN">
              <path id="Left" class="cls-46" d="M2957.8,1496.8l-50.6,21.4s2.1,61.9,50.6,80.1c9-45.1,0-101.5,0-101.5Z"/>
              <path id="Right" class="cls-16" d="M2957.8,1496.8v101.3c49-18,50.6-79.9,50.6-79.9l-50.6-21.4Z"/>
              <g id="Power">
                <path id="Fill-4" class="cls-23" d="M2943.4,1530.4c.9-.9,2.3-1.2,3.5-.5,1.2.5,1.8,4.6,1.2,5.3-.9.9-1.8,1.8-2.8,2.8-2.8,3.5-3.9,7.6-3.2,12.2,1.2,6.4,4.8,10.6,11,12.7,5.3,1.6,10.1.7,14.5-2.8,3-2.3,4.8-5.3,5.5-8.7.9-3.7.5-7.4-1.4-10.8-.9-1.8-2.3-3.5-3.9-4.8-.7-.7-1.4-1.4-1.4-2.3-.2-1.4.5-2.3,1.6-3.2,1.2-.7,2.3-.7,3.5,0,1.4.9,2.8,2.3,3.9,3.7,2.5,3.2,4.1,6.9,4.6,11,.7,6.7-1.2,12.4-5.5,17.5-3.5,3.7-7.6,6.2-12.4,7.1-5.1.9-9.9.2-14.5-1.8-4.6-2.3-8.1-5.8-10.4-10.1-1.6-3-2.3-6.4-2.3-11,.5-5.8,3.2-11.5,8.5-16.1Z"/>
                <path id="Rectangle" class="cls-23" d="M2957.7,1520.5h0c1.8,0,3.2,1.4,3.2,3.2v15.2c0,1.8-1.4,3.2-3.2,3.2h0c-1.8,0-3.2-1.6-3.2-3.2v-15.2c0-1.8,1.4-3.2,3.2-3.2Z"/>
              </g>
            </g>
          </g>
        </g>
        <g>
          <g>
            <g>
              <path class="cls-49" d="M225,1103c-64-57-53.1-87.9-7.8-52.9,45.2,35,63.5,46.7,96,55.5,32.4,8.8,15.4,54.8,5.8,65.6-13.9,15.3-30.1-11.3-94-68.2Z"/>
              <path class="cls-8" d="M350.7,1078l-38.3,33.9c-2.5,2.3-3.9,5.6-3.6,9s2.2,6.5,5.2,8.2c6.4,3.8,14.4,3.1,19.8-1.8l26.2-23.6-9.3-25.7Z"/>
            </g>
            <g>
              <path class="cls-6" d="M723,820.9c-112.1,24.7-246.7,112.2-390.9,263.1-10.5,11,13.1,23.7,22.6,32,160.1-135,400.7-162.9,591-113.1,157,40.9,252.6-95.3,205.1-135.7-135.3-114.7-258.2-83.7-427.8-46.3Z"/>
              <g class="cls-44">
                <path class="cls-25" d="M765.4,980c62.3.2,123.6,8,180.4,22.8,157,40.9,252.6-95.3,205.1-135.7-135.4-114.6-258.3-83.7-427.9-46.3-51.9,11.4-108.7,36.5-168.9,74.9,14.6,21.1,21,53.6,48.1,37.1,70.4-55.1,112.6,16.5,163.2,47.2Z"/>
              </g>
            </g>
          </g>
          <path class="cls-9" d="M1062.6,889s-43.5-139.4,9.6-76.2c50.6,60.1,203.8,104.2,190.5,122.7-10.8,15.1-72.1,75-72.1,75l-9.7-3.5-118.3-118Z"/>
          <g>
            <path class="cls-29" d="M1151.3,581.8l-77.2,171.8-29,19.8-82.3-13,9.1-63.8s97.7-68.6,141.9-150.2c58.7-108.5,113.9-117,113.9-117l-76.4,152.4Z"/>
            <g>
              <path class="cls-30" d="M1165.1,485.3c-51.1,82.9-166.5,332.1-166.5,332.1,0,0,129.8,35.1,246.3,143.1,8.4-10.4,16.6-20.2,24.8-29.8,1.6-1.7,22.4-2.1,35.1-14.5,126-122.8,177.2-179.7,172.1-324.3-5.6-156.8-142.1-171.2-142.1-171.2-35.2-7.8-117.1-20.8-169.7,64.6Z"/>
              <g class="cls-43">
                <path class="cls-31" d="M1043,723.1c-25.3,55.2-44.5,94.4-44.5,94.4,0,0,129.8,35.1,246.3,143.1,8.4-10.4,16.6-20.2,24.8-29.8,1.6-1.7,22.4-2.1,35.1-14.5,126-122.8,177.2-179.7,172.1-324.3-.3-10.4-1.3-20.1-2.7-29.2-19.9,25.3-40.3,42.3-58.3,54.2-47.7,31.2-58.4,37.3-79.9,73.9-26.7,45.5-30.2,56.2-52.3,85.3-29.4,38.6-110.7,43.4-168.8,13.6-37.2-19.2-52.1-35.1-71.8-66.7Z"/>
              </g>
            </g>
            <path class="cls-32" d="M1202.9,762.3s-21.2-9-33.5-23.7c-12.9-15.2-56.5-20.9-81.6,2.7-22.6,21.2,18.1,32.7,38.6,34.9,21.1,2.3,19.6,4,38.1,11.1s44.3,5.4,44.3,5.4l-5.9-30.4Z"/>
            <path class="cls-34" d="M1373.3,714.6c-2.7,102.2-173.7,35.1-173.7,35.1,0,0-11.3,41.3-1.6,60.5,137.5,49.9,251,65.8,271.8-61,40.1-244.4-35.8-251.9-35.8-251.9-44.2-11.4-57.7,102.8-60.7,217.3Z"/>
            <path class="cls-14" d="M1290,471.7c-10.5-2.4-17.7-7.5-21.6-15-7.3-14.1,0-31.6.3-32.4.2-.6.9-1,1.6-.7.6.2,1,.9.7,1.6,0,.2-7.2,17.2-.4,30.3,3.5,6.9,10.2,11.5,20,13.8,35.2,8.2,77.9-24.1,78.3-24.4.5-.4,1.3-.3,1.7.2.4.5.3,1.3-.2,1.7-1.5,1.2-34.1,25.8-66.4,26.3-4.8.1-9.4-.3-14-1.4Z"/>
            <path class="cls-14" d="M1262.5,925.5c-1.2-1-124.5-107.8-234.5-132.7-.6-.2-1-.8-.9-1.5.2-.6.8-1.1,1.5-.9,110.5,25,234.4,132.2,235.6,133.2.5.4.6,1.2,0,1.7-.3.3-.6.4-1,.4s-.4,0-.8-.2Z"/>
          </g>
          <g>
            <path class="cls-38" d="M1293.6,391.5s-21.9,65.2,7,58.8c28.8-6.4,43.2-21.9,38.4-33-4.8-11.1-.7-70.3-.7-70.3l-44.7,44.5Z"/>
            <path class="cls-39" d="M1288.8,369c7.4,6.3,13,14.4,14.4,16.5,3.6,5.5,6.2,10.6,8,14.8,13-15.3,19.2-27.3,22.3-34.3,1.3-2.9.9-2.5,5-12.5,4.6-11.3,6.4-17,7.1-21.5,1.2-8.7-.6-18.9-5-25.8-9.4-14.7-27.2-8.8-52.4-19.1-32.4-13.2-37.6-37-47.3-33.4-16.9,6.2-16.2,83.1,14.2,99.1,8.6,4.7,20.4,4.7,33.7,16.2Z"/>
            <path class="cls-40" d="M1342.1,360.3c-1.3-1.8-3.5-2.7-4.2-2.9-4.8-1.3-10.6,1.9-14.9,8,2.1-18.7-1.4-25-5-27-2.9-1.8-5.1-.3-14-1-9.6-.8-11.9-2.8-17.8-3.3-9.9-1-21.2,2.9-26.2,8.2-15.1,16-.2,76.2,27.3,73.2,30.7-3.5,41.5-31.2,41.5-31.2,13.4-7.9,18.2-17.9,13.3-24Z"/>
          </g>
          <g>
            <path class="cls-41" d="M961.4,802.4l-103-6.2,217.9,81.1,115.2-39.5c1.4-.5,2.2-1.9,2.1-3.2,0-.2.3-6.3.3-6.5-.3-1.2-1.4-2-2.7-2.2l-229.8-23.5Z"/>
            <path class="cls-24" d="M961.8,795.7l-103-6.2,217.9,81.1,115.2-39.6c1.4-.5,2.2-1.9,2.1-3.2,0-1.4-1.3-2.5-2.7-2.7l-229.5-29.4Z"/>
            <path class="cls-50" d="M1075.1,871.3l-270.2-45.3c-3.6-.7-6.3-3.6-6.5-7.3l-13.3-210.3c0-2.3.8-4.6,2.5-6.2s4-2.3,6.4-2l259.9,36.2c3.6.5,6.4,3.4,6.7,7l21.1,225.5-6.6,2.4Z"/>
            <path class="cls-33" d="M798.8,829.6c-3.6-.7-6.3-3.6-6.5-7.3l-13.3-210.3c0-2.3.8-4.6,2.5-6.2s4-2.3,6.4-2l260,36.2c3.6.5,6.4,3.4,6.7,7l21.7,230.5-277.5-47.9Z"/>
            <path class="cls-47" d="M1071.3,825.5c-96.5-17.2-199.8-21.4-283-66.8l4,63.5c.3,3.6,3,6.7,6.5,7.3l277.5,48-5-52Z"/>
          </g>
          <g>
            <path class="cls-49" d="M506.9,833.9c-70.3-17.1-59.8-45.9-11.9-44.2,34.2,1.2,71.8,3.1,93.6,10.4,30.1,10.1,21.9,24.7,18.4,37.9-5,18.7-54.1,7.2-100.1-4.1Z"/>
            <path class="cls-36" d="M581.2,805.7c16.6,1.2,10.9,6.4,10.6,13.8-.3,7.4,2.5,14.6-11.7,12.8-6.1-.8-10.9-6.4-10.6-13.8.2-7.4,5.5-13.2,11.7-12.8Z"/>
            <path class="cls-35" d="M713.2,883.2s-58-34.2-105.1-35.2-26-48.4-9.9-51.3c74.8-22,102-25,102-25l14,2-1,109.5Z"/>
            <path class="cls-37" d="M1092.2,873.3c-26.1-3.6-153.5-23.2-236.5-59.5-98.2-43-192.9-72.2-193.2,5s255.2,219.9,396.9,223.1c141.8,3.2,147.6-57.9,147.6-57.9,7.6-29.5-81.3-106.1-114.8-110.7Z"/>
            <g class="cls-43">
              <path class="cls-27" d="M1137.9,880.5c-11.1-6.8-26.6-15.2-26.6-15.2,0,0-20.5,7.7-21.4,7.6-30.9-4.4-153.4-24-234-59.2-50.1-21.9-99.2-40.1-135.5-42.6,5.7,26.9,17,51.6,38.5,65.4,27.2,17.6,45.6,1.6,98.6,9.5,81.8,12.3,97.3,59,163,64.6,23.9,2.2,74.8-6.3,117.4-30.1Z"/>
            </g>
          </g>
        </g>
      </g>
    </g>
  </g>
</svg>