<?xml version="1.0" encoding="utf-8"?>
<!-- Generator: Adobe Illustrator 26.5.0, SVG Export Plug-In . SVG Version: 6.00 Build 0)  -->
<svg version="1.1" id="Layer_1" xmlns="http://www.w3.org/2000/svg" xmlns:xlink="http://www.w3.org/1999/xlink" x="0px" y="0px"
	 viewBox="0 0 30.7 30.5" style="enable-background:new 0 0 30.7 30.5;" xml:space="preserve">
<style type="text/css">
	.st0{fill:#4A9E41;}
</style>
<g id="Group_941" transform="translate(-2026.742 896.378)">
	<path id="Path_4653" class="st0" d="M2046.7-865.9c-0.1,0-0.2,0-0.3-0.1l-4.3-2.6l-4.1,2.6c-0.2,0.1-0.5,0.1-0.7,0
		s-0.3-0.4-0.2-0.7l1.1-4.9l-3.7-3.1c-0.2-0.2-0.3-0.4-0.2-0.7c0.1-0.2,0.3-0.4,0.5-0.4l5-0.4l1.8-4.5c0.1-0.2,0.3-0.4,0.6-0.4l0,0
		c0.3,0,0.5,0.2,0.6,0.4l2,4.6l4.9,0.3c0.3,0,0.5,0.2,0.6,0.4s0,0.5-0.2,0.7l-3.8,3.3l1.2,4.7c0.1,0.2,0,0.5-0.2,0.7
		C2046.9-865.9,2046.8-865.9,2046.7-865.9z M2042-869.9c0.1,0,0.2,0,0.3,0.1l3.3,2l-0.9-3.6c-0.1-0.2,0-0.5,0.2-0.6l2.9-2.6
		l-3.7-0.2c-0.2,0-0.4-0.2-0.5-0.4l-1.5-3.6l-1.4,3.5c-0.1,0.2-0.3,0.4-0.5,0.4l-3.9,0.3l2.9,2.4c0.2,0.2,0.3,0.4,0.2,0.6l-0.9,3.8
		l3.1-2C2041.8-869.9,2041.9-869.9,2042-869.9z M2040.2-875.6L2040.2-875.6z M2054.5-869.6c-0.1,0-0.2,0-0.3-0.1l-3.4-2.2l-2.2,1.3
		c-0.3,0.2-0.7,0.1-0.9-0.2c-0.2-0.3-0.1-0.7,0.2-0.9l2.5-1.5c0.2-0.1,0.5-0.1,0.7,0l2.5,1.6l-0.7-3c-0.1-0.2,0-0.5,0.2-0.6l2.2-1.9
		l-3.1-0.3c-0.2,0-0.4-0.2-0.5-0.4l-1.1-2.7l-1.2,2.8c-0.1,0.2-0.3,0.4-0.5,0.4l-2.7,0.2c-0.3,0-0.6-0.2-0.7-0.6l0,0
		c0-0.3,0.2-0.6,0.6-0.7l2.3-0.2l1.6-3.9c0.1-0.2,0.3-0.4,0.6-0.4l0,0c0.3,0,0.5,0.2,0.6,0.4l1.5,3.8l4.2,0.4c0.3,0,0.5,0.2,0.5,0.4
		c0.1,0.2,0,0.5-0.2,0.7l-3.1,2.6l1,4.1c0.1,0.2,0,0.5-0.2,0.7C2054.7-869.6,2054.6-869.6,2054.5-869.6L2054.5-869.6z M2029.7-869.6
		c-0.1,0-0.3,0-0.4-0.1c-0.2-0.1-0.3-0.4-0.2-0.7l1-4.1l-3.1-2.6c-0.2-0.2-0.3-0.4-0.2-0.7c0.1-0.2,0.3-0.4,0.5-0.4l4.2-0.4l1.5-3.8
		c0.1-0.2,0.3-0.4,0.6-0.4c0.3,0,0.5,0.1,0.6,0.4l1.6,3.9l2.3,0.2c0.3,0,0.6,0.3,0.6,0.7l0,0c0,0.3-0.3,0.6-0.7,0.6l0,0l-2.7-0.2
		c-0.2,0-0.4-0.2-0.5-0.4l-1.2-2.8l-1.1,2.7c-0.1,0.2-0.3,0.4-0.5,0.4l-3.1,0.3l2.2,1.9c0.2,0.2,0.3,0.4,0.2,0.6l-0.7,3l2.5-1.6
		c0.2-0.1,0.5-0.1,0.7,0l2.5,1.5c0.3,0.2,0.4,0.6,0.2,0.9c-0.2,0.3-0.6,0.4-0.9,0.2l-2.2-1.3l-3.4,2.2
		C2030-869.6,2029.9-869.6,2029.7-869.6L2029.7-869.6z M2047.6-881.8c-0.3,0-0.6-0.3-0.6-0.6l0,0v-3.3c0-1.2-0.9-2.1-2.1-2.1h-5.6
		c-1.2,0-2.1,0.9-2.1,2.1v3.3c0,0.3-0.3,0.6-0.6,0.6l0,0c-0.3,0-0.6-0.3-0.6-0.6l0,0v-3.3c0-1.8,1.5-3.3,3.3-3.3h5.6
		c1.8,0,3.3,1.5,3.3,3.3v3.3C2048.3-882.1,2048-881.8,2047.6-881.8L2047.6-881.8z M2044.9-881.9c-0.3,0-0.6-0.3-0.6-0.6l0,0v-3.1
		c0-0.3,0.3-0.6,0.6-0.6l0,0c0.3,0,0.6,0.3,0.6,0.6l0,0v3.1C2045.5-882.2,2045.2-881.9,2044.9-881.9L2044.9-881.9z M2039.3-881.9
		c-0.3,0-0.6-0.3-0.6-0.6l0,0v-3.1c0-0.3,0.3-0.6,0.6-0.6l0,0c0.3,0,0.6,0.3,0.6,0.6l0,0v3.1
		C2039.9-882.2,2039.7-881.9,2039.3-881.9L2039.3-881.9z M2042.1-889.7c-1.9,0-3.4-1.6-3.3-3.4v-0.1c0-0.9,0.4-1.8,1.1-2.4
		c0.6-0.5,1.4-0.8,2.3-0.8c1.7-0.1,3.2,1.2,3.3,2.9c0,0.1,0,0.1,0,0.2c0.1,1.9-1.3,3.5-3.2,3.6
		C2042.2-889.7,2042.2-889.7,2042.1-889.7L2042.1-889.7z M2042.1-895.1c-1.1-0.1-2,0.7-2.1,1.7v0.1c-0.1,1.2,0.8,2.2,1.9,2.3h0.1
		c1.2,0,2.1-1,2.1-2.2v-0.1c0-1-0.8-1.9-1.8-1.9C2042.3-895.1,2042.2-895.1,2042.1-895.1L2042.1-895.1z"/>
</g>
</svg>
