<?xml version="1.0" encoding="UTF-8"?>
<svg id="Layer_1" data-name="Layer 1" xmlns="http://www.w3.org/2000/svg" version="1.1" viewBox="0 0 16.4 14">
  <defs>
    <style>
      .cls-1 {
        fill: #010101;
        stroke-width: 0px;
      }
    </style>
  </defs>
  <path class="cls-1" d="M14.7,9h-.7l1.8-7c0-.2-.2-.4-.4-.4h0c-.2,0-.4.2-.4.4l-1.8,7H3L1.3,2c0-.2-.2-.4-.4-.4h0c-.2,0-.4.2-.4.4l1.8,7h-.7c-.8,0-1.4.6-1.4,1.4v1.2c0,.8.6,1.4,1.4,1.4h13.3c.8,0,1.4-.6,1.4-1.4v-1.2c0-.8-.6-1.4-1.4-1.4ZM1.4,11.5c-.3,0-.5-.2-.5-.5s.2-.5.5-.5.5.2.5.5-.2.5-.5.5ZM10.1,11.3c-.2,0-.3-.2-.3-.3s.2-.3.3-.3.3.2.3.3-.2.3-.3.3ZM11.4,11.3c-.2,0-.3-.2-.3-.3s.2-.3.3-.3.3.2.3.3-.2.3-.3.3ZM12.7,11.3c-.2,0-.3-.2-.3-.3s.2-.3.3-.3.3.2.3.3-.2.3-.3.3ZM14.1,11.3c-.2,0-.3-.2-.3-.3s.2-.3.3-.3.3.2.3.3-.2.3-.3.3Z"/>
  <path class="cls-1" d="M10.5,3.4h0c.2-.2.1-.4,0-.6-.7-.6-1.6-.9-2.4-.9s-1.7.3-2.4.9c-.2.1-.2.4,0,.6h0c.1.1.4.2.5,0,.6-.5,1.3-.7,2-.7s1.4.2,2,.7c.2.1.4.1.5,0Z"/>
  <path class="cls-1" d="M9.4,4.5h0c.2-.2.1-.4,0-.6-.4-.3-.9-.4-1.3-.4s-.9.1-1.3.4c-.2.1-.2.4,0,.6h0c.1.1.3.2.5,0,.3-.2.6-.3.9-.3s.6,0,.9.3c.2.1.4,0,.5,0Z"/>
  <path class="cls-1" d="M4.5,2.4c.1.1.4.1.5,0,.9-.7,1.9-1.1,3-1.1s2.2.4,3,1.1c.2.1.4.1.5,0h0c.2-.2.1-.4,0-.6-1-.9-2.3-1.3-3.5-1.3s-2.5.4-3.5,1.3c-.2.1-.2.4,0,.6h0Z"/>
  <circle class="cls-1" cx="8" cy="5.8" r=".8"/>
</svg>